<?xml version="1.0" encoding="UTF-8"?>
<svg width="256px" height="256px" viewBox="0 0 256 256" version="1.1" xmlns="http://www.w3.org/2000/svg" xmlns:xlink="http://www.w3.org/1999/xlink">
    <!-- Generator: Sketch 52.5 (67469) - http://www.bohemiancoding.com/sketch -->
    <title>bt-agregar-menu</title>
    <desc>Created with Sketch.</desc>
    <g id="bt-agregar-menu" stroke="none" stroke-width="1" fill="none" fill-rule="evenodd">
        <g id="agregar-menu" transform="translate(18.000000, 33.000000)">
            <g>
                <path d="M205.080108,134.183225 L138.52474,134.183225 C130.127244,134.183225 123.318529,127.704164 123.318529,119.710679 L128.526068,41.2505962 C128.526068,33.2571112 135.334782,26.7780508 143.732279,26.7780508 L199.872569,26.7780508 C208.270066,26.7780508 215.07878,33.2571112 215.07878,41.2505962 L220.288797,119.710679 C220.288797,127.704164 213.480083,134.183225 205.080108,134.183225" id="Fill-1" fill="#ffffff"></path>
                <path d="M205.080108,134.183225 L138.52474,134.183225 C130.127244,134.183225 123.318529,127.704164 123.318529,119.710679 L128.526068,41.2505962 C128.526068,33.2571112 135.334782,26.7780508 143.732279,26.7780508 L199.872569,26.7780508 C208.270066,26.7780508 215.07878,33.2571112 215.07878,41.2505962 L220.288797,119.710679 C220.288797,127.704164 213.480083,134.183225 205.080108,134.183225 Z" id="Stroke-3" stroke="#BC2D21" stroke-width="7.4358"></path>
                <path d="M147.842294,25.1986869 C147.842294,11.9679201 158.569674,1.2380607 171.80292,1.2380607 C185.036165,1.2380607 195.763546,11.9679201 195.763546,25.1986869" id="Stroke-5" stroke="#BC2D21" stroke-width="7.4358"></path>
                <path d="M160.167628,111.198175 C160.167628,155.086746 124.589803,190.662091 80.7012331,190.662091 C36.8151415,190.662091 1.23979572,155.086746 1.23979572,111.198175 C1.23979572,67.3120838 36.8151415,31.7342594 80.7012331,31.7342594 C124.589803,31.7342594 160.167628,67.3120838 160.167628,111.198175" id="Fill-7" fill="#BC2D21"></path>
                <path d="M160.167628,111.198175 C160.167628,155.086746 124.589803,190.662091 80.7012331,190.662091 C36.8151415,190.662091 1.23979572,155.086746 1.23979572,111.198175 C1.23979572,67.3120838 36.8151415,31.7342594 80.7012331,31.7342594 C124.589803,31.7342594 160.167628,67.3120838 160.167628,111.198175 Z" id="Stroke-9" stroke="#BC2D21" stroke-width="7.4358"></path>
                <path d="M77.2676285,151.289035 L77.2676285,71.1088033 C77.2676285,69.2201101 78.8142749,67.6734637 80.7029681,67.6734637 C82.5916613,67.6734637 84.1358291,69.2201101 84.1358291,71.1088033 L84.1358291,151.289035 C84.1358291,153.177728 82.5916613,154.724374 80.7029681,154.724374 C78.8142749,154.724374 77.2676285,153.177728 77.2676285,151.289035" id="Fill-11" fill="#FFFFFF"></path>
                <path d="M120.793084,114.632771 L40.6128524,114.632771 C38.7241592,114.632771 37.1799914,113.086125 37.1799914,111.197432 C37.1799914,109.308739 38.7241592,107.764571 40.6128524,107.764571 L120.793084,107.764571 C122.681777,107.764571 124.228423,109.308739 124.228423,111.197432 C124.228423,113.086125 122.681777,114.632771 120.793084,114.632771" id="Fill-13" fill="#FFFFFF"></path>
            </g>
        </g>
    </g>
</svg>