<?xml version="1.0" encoding="UTF-8"?>
<svg width="256px" height="256px" viewBox="0 0 256 256" version="1.1" xmlns="http://www.w3.org/2000/svg" xmlns:xlink="http://www.w3.org/1999/xlink">
    <!-- Generator: Sketch 52.5 (67469) - http://www.bohemiancoding.com/sketch -->
    <title>ic-pedido3</title>
    <desc>Created with Sketch.</desc>
    <g id="ic-pedido3" stroke="none" stroke-width="1" fill="none" fill-rule="evenodd">
        <g transform="translate(52.000000, 22.000000)">
            <g>
                <path d="M127.25174,209.51984 L25.21034,209.51984 C12.33974,209.51984 1.90114,199.58664 1.90114,187.33164 L9.88494,67.04264 C9.88494,54.78764 20.31974,44.85444 33.19794,44.85444 L119.26414,44.85444 C132.14234,44.85444 142.58094,54.78764 142.58094,67.04264 L150.56474,187.33164 C150.56474,199.58664 140.12994,209.51984 127.25174,209.51984" id="Fill-1" fill="#BC2D21"></path>
                <path d="M127.25174,209.51984 L25.21034,209.51984 C12.33974,209.51984 1.90114,199.58664 1.90114,187.33164 L9.88494,67.04264 C9.88494,54.78764 20.31974,44.85444 33.19794,44.85444 L119.26414,44.85444 C132.14234,44.85444 142.58094,54.78764 142.58094,67.04264 L150.56474,187.33164 C150.56474,199.58664 140.12994,209.51984 127.25174,209.51984 Z" id="Stroke-3" stroke="#BC2D21" stroke-width="11.4"></path>
                <path d="M39.4991,38.63308 C39.4991,18.34868 55.9455,1.89848 76.2337,1.89848 C96.5219,1.89848 112.9645,18.34868 112.9645,38.63308" id="Stroke-5" stroke="#BC2D21" stroke-width="11.4"></path>
            </g>
        </g>
    </g>
</svg>