<?xml version="1.0" encoding="UTF-8"?>
<svg width="500px" height="275px" viewBox="0 0 500 275" version="1.1" xmlns="http://www.w3.org/2000/svg" xmlns:xlink="http://www.w3.org/1999/xlink">
    <!-- Generator: Sketch 52.5 (67469) - http://www.bohemiancoding.com/sketch -->
    <title>logo-blanco</title>
    <desc>Created with Sketch.</desc>
    <defs>
        <polygon id="path-1" points="0 1.4605344 437.011933 1.4605344 437.011933 40.2828572 0 40.2828572"></polygon>
        <polygon id="path-3" points="0 0.982266324 437.011933 0.982266324 437.011933 39.8045232 0 39.8045232"></polygon>
        <polygon id="path-5" points="0 241.488 479.361168 241.488 479.361168 1.46016 0 1.46016"></polygon>
        <path d="M0.07488,44.91864 C0.07488,69.2172 19.770192,88.91064 44.06688,88.91064 C68.361696,88.91064 88.057008,69.2172 88.057008,44.91864 C88.057008,20.623824 68.361696,0.928512 44.06688,0.928512 C19.770192,0.928512 0.07488,20.623824 0.07488,44.91864" id="path-7"></path>
        <radialGradient cx="50.0001081%" cy="50.0002081%" fx="50.0001081%" fy="50.0002081%" r="55.8141856%" id="radialGradient-9">
            <stop stop-color="#F3E9DA" offset="0%"></stop>
            <stop stop-color="#FFFFFF" offset="100%"></stop>
        </radialGradient>
        <path d="M1.855152,43.04664 C1.855152,66.360528 20.752992,85.258368 44.06688,85.258368 C67.380768,85.258368 86.276736,66.360528 86.276736,43.04664 C86.276736,19.734624 67.380768,0.836784 44.06688,0.836784 C20.752992,0.836784 1.855152,19.734624 1.855152,43.04664 M39.66768,9.876672 C39.66768,5.359536 42.01704,1.699776 44.916768,1.699776 C47.438352,1.699776 49.544352,4.475952 50.046048,8.175024 C50.143392,6.993792 50.583312,5.982912 51.399504,5.301504 C53.627184,3.446352 57.777408,4.756752 60.664032,8.22744 C63.556272,11.698128 64.093536,16.016832 61.863984,17.870112 C59.638176,19.727136 55.489824,18.416736 52.597584,14.944176 C51.28344,13.364208 50.461632,11.610144 50.16024,9.990864 C50.120928,14.453712 47.790288,18.05544 44.916768,18.05544 C42.01704,18.05544 39.66768,14.393808 39.66768,9.876672 M26.93808,14.93856 C24.92568,12.849408 25.938432,8.616816 29.191968,5.48496 C32.447376,2.353104 36.715536,1.50696 38.724192,3.597984 C40.73472,5.685264 39.72384,9.917856 36.470304,13.051584 C34.424208,15.019056 31.977504,16.084224 29.94264,16.084224 C28.742688,16.084224 27.685008,15.713568 26.93808,14.93856 M12.536784,23.237136 C10.524384,21.147984 11.535264,16.917264 14.7888,13.785408 C18.044208,10.653552 22.31424,9.80928 24.321024,11.89656 C26.13312,13.77792 25.485408,17.396496 22.963824,20.38608 C25.848576,18.502848 29.019744,18.237024 30.670848,19.951776 C30.745728,20.034144 30.811248,20.122128 30.87864,20.20824 C30.618432,19.071936 30.72888,17.986176 31.294224,17.096976 C32.842368,14.646528 37.192896,14.622192 41.011776,17.037072 C44.82504,19.455696 46.661472,23.396256 45.111456,25.846704 C43.56144,28.297152 39.210912,28.32336 35.392032,25.906608 C33.735312,24.854544 32.452992,23.517936 31.65552,22.138272 C31.932576,24.322896 30.760704,27.147744 28.415088,29.405376 C25.15968,32.53536 20.895264,33.383376 18.880992,31.294224 C17.07264,29.410992 17.716608,25.794288 20.241936,22.802832 C18.660096,23.836176 16.992144,24.3828 15.535728,24.3828 C14.337648,24.3828 13.28184,24.012144 12.536784,23.237136 M64.716912,27.62136 C61.974432,26.679744 60.94296,22.45464 62.408736,18.180864 C63.876384,13.910832 67.287168,11.209536 70.027776,12.151152 C72.772128,13.092768 73.8036,17.319744 72.335952,21.591648 C72.33408,21.599136 72.330336,21.60288 72.328464,21.610368 C72.648576,21.260304 73.01736,20.968272 73.44792,20.76984 C76.076208,19.545552 79.750944,21.878064 81.652896,25.977744 C83.55672,30.071808 82.96704,34.383024 80.338752,35.601696 C77.710464,36.824112 74.0376,34.493472 72.133776,30.397536 C71.096688,28.166112 70.802784,25.876656 71.17344,24.053328 C69.75072,26.359632 67.732704,27.80856 65.8476,27.80856 C65.46384,27.80856 65.083824,27.748656 64.716912,27.62136 M50.794848,27.4716 C46.786896,25.389936 44.622864,21.617856 45.9576,19.041984 C47.294208,16.471728 51.627888,16.074864 55.63584,18.1584 C59.643792,20.241936 61.807824,24.014016 60.469344,26.588016 C59.254416,28.928016 55.559088,29.467152 51.886224,27.97704 C52.573248,28.28592 53.256528,28.675296 53.921088,29.143296 C57.6108,31.745376 59.250672,35.772048 57.58272,38.145744 C57.324384,38.512656 56.99304,38.810304 56.616768,39.055536 C57.719376,38.639952 58.97736,38.377872 60.319584,38.31984 C64.831104,38.13264 68.586336,40.328496 68.708016,43.22448 C68.754816,44.396352 68.19696,45.497088 67.22352,46.412496 C68.107104,46.34136 68.934528,46.507968 69.6384,46.964736 C72.068256,48.546576 72.036432,52.897104 69.57288,56.682288 C67.107456,60.4656 63.140688,62.25336 60.712704,60.67152 C58.28472,59.08968 58.3128,54.741024 60.778224,50.952096 C61.384752,50.023584 62.081136,49.21488 62.826192,48.544704 C62.165376,48.685104 61.472736,48.778704 60.75576,48.810528 C56.24424,48.995856 52.487136,46.801872 52.367328,43.904016 C52.296192,42.189264 53.518608,40.620528 55.458,39.579696 C53.374464,40.184352 50.467248,39.549744 47.872656,37.724544 C44.1792,35.124336 42.539328,31.09392 44.211024,28.723968 C45.515808,26.870688 48.458592,26.5824 51.444432,27.787968 C51.22728,27.688752 51.010128,27.58392 50.794848,27.4716 M7.28208,33.111936 C5.041296,29.191968 5.26032,24.848928 7.776288,23.405616 C10.292256,21.966048 14.150448,23.98032 16.393104,27.90216 C18.639504,31.822128 18.414864,36.165168 15.897024,37.606608 C14.73264,38.27304 13.276224,38.190672 11.827296,37.527984 C12.662208,38.858976 13.242528,40.586832 13.405392,42.509376 C13.46904,43.26192 13.463424,43.995744 13.399776,44.699616 C13.714272,43.357392 14.412528,42.292224 15.485184,41.751216 C16.731936,41.124096 18.250128,41.320656 19.71216,42.136848 C17.68104,39.907296 16.947216,37.258416 18.098496,35.4276 C19.509984,33.1812 23.272704,32.96592 26.831376,34.787376 C26.588016,34.339968 26.428896,33.860736 26.387712,33.355296 C26.157456,30.463056 29.620656,27.831024 34.122816,27.469728 C38.624976,27.110304 42.462576,29.160144 42.692832,32.050512 C42.848208,33.973056 41.36184,35.777664 39.027456,36.880272 C39.532896,36.736128 40.058928,36.621936 40.605552,36.54144 C45.074016,35.880624 49.03704,37.666512 49.463856,40.536288 C49.890672,43.404192 46.6128,46.264608 42.146208,46.925424 C37.677744,47.588112 33.709104,45.800352 33.28416,42.932448 C32.97528,40.843296 34.639488,38.756016 37.295856,37.522368 C36.562032,37.726416 35.775792,37.868688 34.957728,37.93608 C33.257952,38.070864 31.651776,37.8612 30.300192,37.3932 C32.353776,39.628368 33.098832,42.29784 31.943808,44.136144 C30.40128,46.588464 26.050752,46.629648 22.226256,44.226 C22.209408,44.214768 22.196304,44.205408 22.179456,44.196048 C22.804704,44.916768 23.375664,45.755424 23.84928,46.698912 C25.882272,50.734944 25.429248,55.061136 22.8384,56.362176 C20.249424,57.668832 16.505424,55.450512 14.472432,51.418224 C13.523328,49.529376 13.12272,47.578752 13.22568,45.899568 C12.647232,48.797424 10.992384,50.922144 8.871408,51.103728 C5.984784,51.350832 3.33216,47.902608 2.946528,43.40232 C2.56464,38.902032 4.590144,35.055072 7.482384,34.807968 C7.828704,34.776144 8.17128,34.804224 8.50824,34.877232 C8.064576,34.34184 7.648992,33.755904 7.28208,33.111936 M63.194976,38.31048 C59.104656,36.395424 56.783376,32.718816 58.01328,30.0924 C59.241312,27.464112 63.552528,26.889408 67.64472,28.802592 C71.736912,30.717648 74.05632,34.396128 72.824544,37.022544 C72.086976,38.602512 70.233696,39.441168 67.98168,39.441168 C66.491568,39.441168 64.825488,39.072384 63.194976,38.31048 M69.316416,44.486208 C68.4684,41.715648 71.28576,38.398464 75.606336,37.080576 C79.92504,35.762688 84.112704,36.940176 84.958848,39.712608 C85.804992,42.486912 82.987632,45.802224 78.668928,47.120112 C78.620256,47.135088 78.573456,47.148192 78.524784,47.163168 C79.857648,46.811232 81.12312,46.936656 82.104048,47.631168 C84.470256,49.302864 84.273696,53.649648 81.667872,57.337488 C79.058304,61.025328 75.026016,62.657712 72.657936,60.982272 C70.291728,59.308704 70.488288,54.96192 73.095984,51.27408 C74.565504,49.198032 76.486176,47.77344 78.30576,47.224944 C77.22936,47.518848 76.166064,47.659248 75.166416,47.659248 C72.279792,47.659248 69.926688,46.489248 69.316416,44.486208 M49.03704,56.736576 C44.7408,55.349424 41.977728,51.991056 42.866928,49.231728 C43.758,46.4724 47.962512,45.360432 52.264368,46.747584 C56.560608,48.136608 59.32368,51.493104 58.436352,54.252432 C58.052592,55.43928 57.056688,56.315376 55.706976,56.826432 C56.41272,56.781504 57.082896,56.905056 57.68568,57.22704 C60.24096,58.595472 60.583536,62.931024 58.451328,66.91464 C57.762432,68.202576 56.897568,69.290208 55.957824,70.132608 C56.865744,69.803136 57.86352,69.571008 58.926816,69.466176 C63.42336,69.026256 67.296528,71.00496 67.5792,73.891584 C67.861872,76.776336 64.447344,79.472016 59.952672,79.913808 C55.456128,80.353728 51.584832,78.375024 51.300288,75.4884 C51.172992,74.178 51.815088,72.90504 52.966368,71.867952 C51.897456,72.169344 50.854752,72.124416 49.965552,71.647056 C48.443616,70.832736 47.713536,68.96448 47.812752,66.748032 C47.047104,68.663088 45.757296,70.02216 44.222256,70.342272 C45.792864,70.765344 47.451456,71.699472 48.909744,73.094112 C52.17264,76.216608 53.196624,80.443584 51.191712,82.540224 C49.1868,84.634992 44.91864,83.801952 41.655744,80.681328 C38.390976,77.55696 37.366992,73.331856 39.371904,71.235216 C40.05144,70.523856 40.993056,70.156944 42.06384,70.095168 C39.897936,69.134832 38.2356,66.107808 38.083968,62.455536 C37.900512,57.942144 40.096368,54.186912 42.994224,54.067104 C45.89208,53.95104 48.387456,57.513456 48.574656,62.026848 C48.593376,62.485488 48.580272,62.931024 48.55032,63.370944 C48.733776,62.8992 48.947184,62.425584 49.198032,61.957584 C50.429808,59.66064 52.217568,57.987072 53.999712,57.242016 C53.574768,57.300048 53.132976,57.33 52.676208,57.33 C51.524928,57.33 50.287536,57.140928 49.03704,56.736576 M32.7132,56.923776 C28.255968,56.189952 25.026768,53.280864 25.494768,50.416704 C25.96464,47.556288 29.959488,45.832176 34.414848,46.564128 C38.87208,47.294208 42.105024,50.208912 41.637024,53.067456 C41.24016,55.484208 38.325456,57.092256 34.746192,57.092256 C34.087248,57.092256 33.40584,57.037968 32.7132,56.923776 M6.780384,61.648704 C4.560192,57.715632 4.803552,53.374464 7.327008,51.946128 C9.852336,50.519664 13.699296,52.552656 15.919488,56.485728 C16.892928,58.207968 17.392752,60.00696 17.433936,61.60752 C19.064448,58.778928 21.59352,57.169008 23.781888,57.848544 C24.8508,58.178016 25.67448,59.009184 26.211744,60.149232 C26.475696,58.698432 27.177696,57.541536 28.297152,56.951856 C30.865536,55.604016 34.646976,57.754944 36.749232,61.755408 C38.845872,65.754 38.4696,70.08768 35.901216,71.433648 C35.133696,71.836128 34.259472,71.92224 33.34968,71.742528 C37.202256,73.417968 39.502944,76.680864 38.540736,79.254864 C37.529856,81.973008 33.276672,82.894032 29.042208,81.317808 C24.811488,79.73784 22.203792,76.257792 23.216544,73.539648 C24.152544,71.025552 27.86472,70.055856 31.76784,71.17344 C30.144816,70.338528 28.564848,68.747328 27.45288,66.635712 C27.202032,66.160224 26.992368,65.682864 26.812656,65.205504 C26.7228,65.864448 26.578656,66.538368 26.370864,67.216032 C25.030512,71.52912 21.702096,74.32776 18.93528,73.470384 C16.522272,72.721584 15.337296,69.447456 15.951312,65.765232 C15.7716,65.92248 15.5844,66.068496 15.372864,66.188304 C14.824368,66.497184 14.215968,66.645072 13.575744,66.645072 C11.258208,66.645072 8.519472,64.728144 6.780384,61.648704 M68.406624,71.121024 C63.913824,70.643664 60.523632,67.919904 60.828768,65.037024 C61.132032,62.154144 65.02392,60.205392 69.514848,60.682752 C74.005776,61.160112 77.39784,63.885744 77.092704,66.766752 C76.81752,69.355728 73.651968,71.194032 69.754464,71.194032 C69.312672,71.194032 68.863392,71.169696 68.406624,71.121024 M51.886224,27.97704 C51.740208,27.909648 51.59232,27.846 51.444432,27.787968 C51.59232,27.853488 51.740208,27.917136 51.886224,27.97704 M78.30576,47.224944 C78.378768,47.204352 78.451776,47.18376 78.524784,47.163168 C78.451776,47.181888 78.378768,47.20248 78.30576,47.224944" id="path-10"></path>
        <radialGradient cx="50.0001126%" cy="50.0001155%" fx="50.0001126%" fy="50.0001155%" r="52.4912562%" id="radialGradient-12">
            <stop stop-color="#D9B79A" offset="0%"></stop>
            <stop stop-color="#F7EEDD" offset="100%"></stop>
        </radialGradient>
        <path d="M6.79536,1.037088 C3.174912,1.037088 0.239616,3.972384 0.239616,7.592832 L0.239616,35.030736 C0.239616,38.651184 3.174912,41.584608 6.79536,41.584608 L34.233264,41.584608 C37.85184,41.584608 40.787136,38.651184 40.787136,35.030736 L40.787136,7.592832 C40.787136,3.972384 37.85184,1.037088 34.233264,1.037088 L6.79536,1.037088 Z" id="path-13"></path>
        <linearGradient x1="31.5517655%" y1="-33.5597512%" x2="55.8369631%" y2="76.4415268%" id="linearGradient-15">
            <stop stop-color="#F27D1D" offset="0%"></stop>
            <stop stop-color="#E2380D" offset="100%"></stop>
        </linearGradient>
        <path d="M7.351344,1.860768 C3.876912,1.860768 1.063296,4.676256 1.063296,8.148816 L1.063296,34.474752 C1.063296,37.947312 3.876912,40.7628 7.351344,40.7628 L33.675408,40.7628 C37.14984,40.7628 39.963456,37.947312 39.963456,34.474752 L39.963456,8.148816 C39.963456,4.676256 37.14984,1.860768 33.675408,1.860768 L7.351344,1.860768 Z" id="path-16"></path>
        <linearGradient x1="31.5513686%" y1="-33.5603253%" x2="55.8374678%" y2="76.4397406%" id="linearGradient-18">
            <stop stop-color="#FFBE6B" offset="0%"></stop>
            <stop stop-color="#EC6202" offset="100%"></stop>
        </linearGradient>
        <path d="M14.3208,1.860768 C7.78752,6.911424 3.648528,12.950496 1.063296,18.17712 L1.063296,25.837344 C3.090672,19.661616 8.038368,9.06048 19.307808,1.860768 L14.3208,1.860768 Z M1.808352,37.445616 C2.272608,38.308608 2.931552,39.046176 3.72528,39.607776 C6.347952,33.778368 15.00408,18.955872 39.304512,5.357664 C38.705472,4.157712 37.73952,3.17304 36.547056,2.559024 C13.875264,16.406208 5.018832,30.506112 1.808352,37.445616 Z M8.6112,40.7628 L12.328992,40.7628 C16.050528,35.266608 24.882624,24.770304 39.963456,20.75112 L39.963456,17.525664 C21.4812,22.074624 11.77488,35.524944 8.6112,40.7628 Z M16.834896,40.7628 L22.30488,40.7628 C26.997984,37.705824 32.883552,35.012016 39.963456,33.79896 L39.963456,30.642768 C30.077424,32.200272 22.394736,36.421632 16.834896,40.7628 Z" id="path-19"></path>
        <linearGradient x1="50.0000375%" y1="-6.4276416%" x2="50.0000375%" y2="77.1428555%" id="linearGradient-21">
            <stop stop-color="#FFD095" offset="0%"></stop>
            <stop stop-color="#FA9446" offset="100%"></stop>
        </linearGradient>
        <polygon id="path-22" points="1.7636112 1.0209888 41.7701232 1.0209888 41.7701232 56.16 1.7636112 56.16"></polygon>
        <polygon id="path-24" points="0 241.488 479.361168 241.488 479.361168 1.46016 0 1.46016"></polygon>
    </defs>
    <g id="logo-blanco" stroke="none" stroke-width="1" fill="none" fill-rule="evenodd">
        <g id="logo1" transform="translate(10.000000, 16.000000)">
            <g id="Group-51">
                <g id="Group-23" transform="translate(0.000000, 0.411840)">
                    <g id="Group-3">
                        <mask id="mask-2" fill="white">
                            <use xlink:href="#path-1"></use>
                        </mask>
                        <g id="Clip-2"></g>
                        <path d="M1.6992144,1.4605344 C1.6992144,1.4605344 435.080318,34.6492224 436.124894,35.4261024 C437.418446,36.3845664 437.26307,39.4471584 435.881534,40.2708384 C434.762078,40.9391424 1.0889424,13.5143424 1.0889424,13.5143424 C-0.4460976,7.2581184 -0.4592016,7.5295584 1.6992144,1.4605344" id="Fill-1" fill="#5E6D77" mask="url(#mask-2)"></path>
                    </g>
                    <g id="Group-6" transform="translate(0.000000, 134.784000)">
                        <mask id="mask-4" fill="white">
                            <use xlink:href="#path-3"></use>
                        </mask>
                        <g id="Clip-5"></g>
                        <path d="M1.6992144,39.8045232 C1.6992144,39.8045232 435.080318,6.6158352 436.124894,5.8389552 C437.418446,4.8804912 437.26307,1.8178992 435.881534,0.9942192 C434.762078,0.3277872 1.0889424,27.7507152 1.0889424,27.7507152 C-0.4460976,34.0069392 -0.4592016,33.7354992 1.6992144,39.8045232" id="Fill-4" fill="#5E6D77" mask="url(#mask-4)"></path>
                    </g>
                    <polygon id="Fill-7" fill="#FFFFFF" points="0.22932 97.5403728 9.207432 97.5403728 9.207432 52.6516848 18.185544 52.6516848 18.185544 97.5403728 45.118008 97.5403728 45.118008 52.6516848 54.09612 52.6516848 54.09612 97.5403728 63.074232 97.5403728 63.074232 106.518485 54.09612 106.518485 54.09612 124.474709 45.118008 124.474709 45.118008 106.518485 18.185544 106.518485 18.185544 124.474709 9.207432 124.474709 9.207432 106.518485 0.22932 106.518485"></polygon>
                    <polygon id="Fill-9" fill="#FFFFFF" points="146.470334 124.474147 132.28619 81.3807072 118.100174 124.474147 94.4886384 52.6511232 103.91603 52.6511232 118.100174 95.8344192 132.196334 52.6511232 146.470334 95.8344192 160.654478 52.6511232 170.08187 52.6511232"></polygon>
                    <path d="M204.551568,115.676309 C219.544416,115.676309 231.57576,103.644965 231.57576,88.6521168 C231.57576,73.6592688 219.544416,61.6297968 204.551568,61.6297968 C189.55872,61.6297968 177.527376,73.6592688 177.527376,88.6521168 C177.527376,103.644965 189.55872,115.676309 204.551568,115.676309 M204.461712,52.6516848 C224.30304,52.6516848 240.37416,68.7209328 240.37416,88.5622608 C240.37416,108.403589 224.30304,124.474709 204.461712,124.474709 C184.622256,124.474709 168.551136,108.403589 168.551136,88.5622608 C168.551136,68.7209328 184.622256,52.6516848 204.461712,52.6516848" id="Fill-11" fill="#FFFFFF"></path>
                    <path d="M279.789869,115.676309 C294.782717,115.676309 306.814061,103.644965 306.814061,88.6521168 C306.814061,73.6592688 294.782717,61.6297968 279.789869,61.6297968 C264.795149,61.6297968 252.765677,73.6592688 252.765677,88.6521168 C252.765677,103.644965 264.795149,115.676309 279.789869,115.676309 M279.698141,52.6516848 C299.541341,52.6516848 315.610589,68.7209328 315.610589,88.5622608 C315.610589,108.403589 299.541341,124.474709 279.698141,124.474709 C259.858685,124.474709 243.789437,108.403589 243.789437,88.5622608 C243.789437,68.7209328 259.858685,52.6516848 279.698141,52.6516848" id="Fill-13" fill="#FFFFFF"></path>
                    <path d="M330.194966,115.676309 C345.187814,115.676309 357.219158,103.644965 357.219158,88.6521168 C357.219158,73.6592688 345.187814,61.6297968 330.194966,61.6297968 L330.194966,115.676309 Z M321.126998,52.6516848 L330.10511,52.6516848 C349.946438,52.6516848 366.015686,68.7209328 366.015686,88.5622608 C366.015686,108.403589 349.946438,124.474709 330.10511,124.474709 L321.126998,124.474709 L321.126998,52.6516848 Z" id="Fill-15" fill="#FFFFFF"></path>
                    <mask id="mask-6" fill="white">
                        <use xlink:href="#path-5"></use>
                    </mask>
                    <g id="Clip-18"></g>
                    <polygon id="Fill-17" fill="#FFFFFF" mask="url(#mask-6)" points="71.933472 106.539264 99.687744 106.539264 99.687744 97.561152 71.933472 97.561152"></polygon>
                    <path d="M101.692094,9.1359216 C42.0071184,4.5513936 1.6992144,1.4607216 1.6992144,1.4607216 C-0.4592016,7.5297456 -0.4460976,7.2583056 1.0889424,13.5145296 C1.0889424,13.5145296 41.8442544,16.2532656 101.692094,19.8568656 L101.692094,9.1359216 Z" id="Fill-19" fill="#DB291A" mask="url(#mask-6)"></path>
                    <path d="M101.692094,156.195749 C43.7930064,159.840533 1.0889424,162.534341 1.0889424,162.534341 C-0.4460976,168.792437 -0.4592016,168.519125 1.6992144,174.588149 C1.6992144,174.588149 42.1755984,171.484373 101.692094,166.911077 L101.692094,156.195749 Z" id="Fill-20" fill="#DB291A" mask="url(#mask-6)"></path>
                    <path d="M479.360794,87.9748272 C479.360794,114.370027 457.963834,135.766987 431.570506,135.766987 C405.177178,135.766987 383.780218,114.370027 383.780218,87.9748272 C383.780218,61.5814992 405.177178,40.1845392 431.570506,40.1845392 C457.963834,40.1845392 479.360794,61.5814992 479.360794,87.9748272" id="Fill-21" fill="#597769" mask="url(#mask-6)"></path>
                    <path d="M478.329883,87.9748272 C478.329883,113.800939 457.393435,134.735515 431.569195,134.735515 C405.746827,134.735515 384.810379,113.800939 384.810379,87.9748272 C384.810379,62.1505872 405.746827,41.2141392 431.569195,41.2141392 C457.393435,41.2141392 478.329883,62.1505872 478.329883,87.9748272" id="Fill-22" fill="#2F1D10" mask="url(#mask-6)"></path>
                </g>
                <g id="Group-26" transform="translate(387.504000, 43.467840)">
                    <mask id="mask-8" fill="white">
                        <use xlink:href="#path-7"></use>
                    </mask>
                    <g id="Clip-25"></g>
                    <path d="M0.07488,44.91864 C0.07488,69.2172 19.770192,88.91064 44.06688,88.91064 C68.361696,88.91064 88.057008,69.2172 88.057008,44.91864 C88.057008,20.623824 68.361696,0.928512 44.06688,0.928512 C19.770192,0.928512 0.07488,20.623824 0.07488,44.91864" id="Fill-24" fill="url(#radialGradient-9)" mask="url(#mask-8)"></path>
                </g>
                <g id="Group-29" transform="translate(387.504000, 45.339840)">
                    <mask id="mask-11" fill="white">
                        <use xlink:href="#path-10"></use>
                    </mask>
                    <g id="Clip-28"></g>
                    <path d="M1.855152,43.04664 C1.855152,66.360528 20.752992,85.258368 44.06688,85.258368 C67.380768,85.258368 86.276736,66.360528 86.276736,43.04664 C86.276736,19.734624 67.380768,0.836784 44.06688,0.836784 C20.752992,0.836784 1.855152,19.734624 1.855152,43.04664 M39.66768,9.876672 C39.66768,5.359536 42.01704,1.699776 44.916768,1.699776 C47.438352,1.699776 49.544352,4.475952 50.046048,8.175024 C50.143392,6.993792 50.583312,5.982912 51.399504,5.301504 C53.627184,3.446352 57.777408,4.756752 60.664032,8.22744 C63.556272,11.698128 64.093536,16.016832 61.863984,17.870112 C59.638176,19.727136 55.489824,18.416736 52.597584,14.944176 C51.28344,13.364208 50.461632,11.610144 50.16024,9.990864 C50.120928,14.453712 47.790288,18.05544 44.916768,18.05544 C42.01704,18.05544 39.66768,14.393808 39.66768,9.876672 M26.93808,14.93856 C24.92568,12.849408 25.938432,8.616816 29.191968,5.48496 C32.447376,2.353104 36.715536,1.50696 38.724192,3.597984 C40.73472,5.685264 39.72384,9.917856 36.470304,13.051584 C34.424208,15.019056 31.977504,16.084224 29.94264,16.084224 C28.742688,16.084224 27.685008,15.713568 26.93808,14.93856 M12.536784,23.237136 C10.524384,21.147984 11.535264,16.917264 14.7888,13.785408 C18.044208,10.653552 22.31424,9.80928 24.321024,11.89656 C26.13312,13.77792 25.485408,17.396496 22.963824,20.38608 C25.848576,18.502848 29.019744,18.237024 30.670848,19.951776 C30.745728,20.034144 30.811248,20.122128 30.87864,20.20824 C30.618432,19.071936 30.72888,17.986176 31.294224,17.096976 C32.842368,14.646528 37.192896,14.622192 41.011776,17.037072 C44.82504,19.455696 46.661472,23.396256 45.111456,25.846704 C43.56144,28.297152 39.210912,28.32336 35.392032,25.906608 C33.735312,24.854544 32.452992,23.517936 31.65552,22.138272 C31.932576,24.322896 30.760704,27.147744 28.415088,29.405376 C25.15968,32.53536 20.895264,33.383376 18.880992,31.294224 C17.07264,29.410992 17.716608,25.794288 20.241936,22.802832 C18.660096,23.836176 16.992144,24.3828 15.535728,24.3828 C14.337648,24.3828 13.28184,24.012144 12.536784,23.237136 M64.716912,27.62136 C61.974432,26.679744 60.94296,22.45464 62.408736,18.180864 C63.876384,13.910832 67.287168,11.209536 70.027776,12.151152 C72.772128,13.092768 73.8036,17.319744 72.335952,21.591648 C72.33408,21.599136 72.330336,21.60288 72.328464,21.610368 C72.648576,21.260304 73.01736,20.968272 73.44792,20.76984 C76.076208,19.545552 79.750944,21.878064 81.652896,25.977744 C83.55672,30.071808 82.96704,34.383024 80.338752,35.601696 C77.710464,36.824112 74.0376,34.493472 72.133776,30.397536 C71.096688,28.166112 70.802784,25.876656 71.17344,24.053328 C69.75072,26.359632 67.732704,27.80856 65.8476,27.80856 C65.46384,27.80856 65.083824,27.748656 64.716912,27.62136 M50.794848,27.4716 C46.786896,25.389936 44.622864,21.617856 45.9576,19.041984 C47.294208,16.471728 51.627888,16.074864 55.63584,18.1584 C59.643792,20.241936 61.807824,24.014016 60.469344,26.588016 C59.254416,28.928016 55.559088,29.467152 51.886224,27.97704 C52.573248,28.28592 53.256528,28.675296 53.921088,29.143296 C57.6108,31.745376 59.250672,35.772048 57.58272,38.145744 C57.324384,38.512656 56.99304,38.810304 56.616768,39.055536 C57.719376,38.639952 58.97736,38.377872 60.319584,38.31984 C64.831104,38.13264 68.586336,40.328496 68.708016,43.22448 C68.754816,44.396352 68.19696,45.497088 67.22352,46.412496 C68.107104,46.34136 68.934528,46.507968 69.6384,46.964736 C72.068256,48.546576 72.036432,52.897104 69.57288,56.682288 C67.107456,60.4656 63.140688,62.25336 60.712704,60.67152 C58.28472,59.08968 58.3128,54.741024 60.778224,50.952096 C61.384752,50.023584 62.081136,49.21488 62.826192,48.544704 C62.165376,48.685104 61.472736,48.778704 60.75576,48.810528 C56.24424,48.995856 52.487136,46.801872 52.367328,43.904016 C52.296192,42.189264 53.518608,40.620528 55.458,39.579696 C53.374464,40.184352 50.467248,39.549744 47.872656,37.724544 C44.1792,35.124336 42.539328,31.09392 44.211024,28.723968 C45.515808,26.870688 48.458592,26.5824 51.444432,27.787968 C51.22728,27.688752 51.010128,27.58392 50.794848,27.4716 M7.28208,33.111936 C5.041296,29.191968 5.26032,24.848928 7.776288,23.405616 C10.292256,21.966048 14.150448,23.98032 16.393104,27.90216 C18.639504,31.822128 18.414864,36.165168 15.897024,37.606608 C14.73264,38.27304 13.276224,38.190672 11.827296,37.527984 C12.662208,38.858976 13.242528,40.586832 13.405392,42.509376 C13.46904,43.26192 13.463424,43.995744 13.399776,44.699616 C13.714272,43.357392 14.412528,42.292224 15.485184,41.751216 C16.731936,41.124096 18.250128,41.320656 19.71216,42.136848 C17.68104,39.907296 16.947216,37.258416 18.098496,35.4276 C19.509984,33.1812 23.272704,32.96592 26.831376,34.787376 C26.588016,34.339968 26.428896,33.860736 26.387712,33.355296 C26.157456,30.463056 29.620656,27.831024 34.122816,27.469728 C38.624976,27.110304 42.462576,29.160144 42.692832,32.050512 C42.848208,33.973056 41.36184,35.777664 39.027456,36.880272 C39.532896,36.736128 40.058928,36.621936 40.605552,36.54144 C45.074016,35.880624 49.03704,37.666512 49.463856,40.536288 C49.890672,43.404192 46.6128,46.264608 42.146208,46.925424 C37.677744,47.588112 33.709104,45.800352 33.28416,42.932448 C32.97528,40.843296 34.639488,38.756016 37.295856,37.522368 C36.562032,37.726416 35.775792,37.868688 34.957728,37.93608 C33.257952,38.070864 31.651776,37.8612 30.300192,37.3932 C32.353776,39.628368 33.098832,42.29784 31.943808,44.136144 C30.40128,46.588464 26.050752,46.629648 22.226256,44.226 C22.209408,44.214768 22.196304,44.205408 22.179456,44.196048 C22.804704,44.916768 23.375664,45.755424 23.84928,46.698912 C25.882272,50.734944 25.429248,55.061136 22.8384,56.362176 C20.249424,57.668832 16.505424,55.450512 14.472432,51.418224 C13.523328,49.529376 13.12272,47.578752 13.22568,45.899568 C12.647232,48.797424 10.992384,50.922144 8.871408,51.103728 C5.984784,51.350832 3.33216,47.902608 2.946528,43.40232 C2.56464,38.902032 4.590144,35.055072 7.482384,34.807968 C7.828704,34.776144 8.17128,34.804224 8.50824,34.877232 C8.064576,34.34184 7.648992,33.755904 7.28208,33.111936 M63.194976,38.31048 C59.104656,36.395424 56.783376,32.718816 58.01328,30.0924 C59.241312,27.464112 63.552528,26.889408 67.64472,28.802592 C71.736912,30.717648 74.05632,34.396128 72.824544,37.022544 C72.086976,38.602512 70.233696,39.441168 67.98168,39.441168 C66.491568,39.441168 64.825488,39.072384 63.194976,38.31048 M69.316416,44.486208 C68.4684,41.715648 71.28576,38.398464 75.606336,37.080576 C79.92504,35.762688 84.112704,36.940176 84.958848,39.712608 C85.804992,42.486912 82.987632,45.802224 78.668928,47.120112 C78.620256,47.135088 78.573456,47.148192 78.524784,47.163168 C79.857648,46.811232 81.12312,46.936656 82.104048,47.631168 C84.470256,49.302864 84.273696,53.649648 81.667872,57.337488 C79.058304,61.025328 75.026016,62.657712 72.657936,60.982272 C70.291728,59.308704 70.488288,54.96192 73.095984,51.27408 C74.565504,49.198032 76.486176,47.77344 78.30576,47.224944 C77.22936,47.518848 76.166064,47.659248 75.166416,47.659248 C72.279792,47.659248 69.926688,46.489248 69.316416,44.486208 M49.03704,56.736576 C44.7408,55.349424 41.977728,51.991056 42.866928,49.231728 C43.758,46.4724 47.962512,45.360432 52.264368,46.747584 C56.560608,48.136608 59.32368,51.493104 58.436352,54.252432 C58.052592,55.43928 57.056688,56.315376 55.706976,56.826432 C56.41272,56.781504 57.082896,56.905056 57.68568,57.22704 C60.24096,58.595472 60.583536,62.931024 58.451328,66.91464 C57.762432,68.202576 56.897568,69.290208 55.957824,70.132608 C56.865744,69.803136 57.86352,69.571008 58.926816,69.466176 C63.42336,69.026256 67.296528,71.00496 67.5792,73.891584 C67.861872,76.776336 64.447344,79.472016 59.952672,79.913808 C55.456128,80.353728 51.584832,78.375024 51.300288,75.4884 C51.172992,74.178 51.815088,72.90504 52.966368,71.867952 C51.897456,72.169344 50.854752,72.124416 49.965552,71.647056 C48.443616,70.832736 47.713536,68.96448 47.812752,66.748032 C47.047104,68.663088 45.757296,70.02216 44.222256,70.342272 C45.792864,70.765344 47.451456,71.699472 48.909744,73.094112 C52.17264,76.216608 53.196624,80.443584 51.191712,82.540224 C49.1868,84.634992 44.91864,83.801952 41.655744,80.681328 C38.390976,77.55696 37.366992,73.331856 39.371904,71.235216 C40.05144,70.523856 40.993056,70.156944 42.06384,70.095168 C39.897936,69.134832 38.2356,66.107808 38.083968,62.455536 C37.900512,57.942144 40.096368,54.186912 42.994224,54.067104 C45.89208,53.95104 48.387456,57.513456 48.574656,62.026848 C48.593376,62.485488 48.580272,62.931024 48.55032,63.370944 C48.733776,62.8992 48.947184,62.425584 49.198032,61.957584 C50.429808,59.66064 52.217568,57.987072 53.999712,57.242016 C53.574768,57.300048 53.132976,57.33 52.676208,57.33 C51.524928,57.33 50.287536,57.140928 49.03704,56.736576 M32.7132,56.923776 C28.255968,56.189952 25.026768,53.280864 25.494768,50.416704 C25.96464,47.556288 29.959488,45.832176 34.414848,46.564128 C38.87208,47.294208 42.105024,50.208912 41.637024,53.067456 C41.24016,55.484208 38.325456,57.092256 34.746192,57.092256 C34.087248,57.092256 33.40584,57.037968 32.7132,56.923776 M6.780384,61.648704 C4.560192,57.715632 4.803552,53.374464 7.327008,51.946128 C9.852336,50.519664 13.699296,52.552656 15.919488,56.485728 C16.892928,58.207968 17.392752,60.00696 17.433936,61.60752 C19.064448,58.778928 21.59352,57.169008 23.781888,57.848544 C24.8508,58.178016 25.67448,59.009184 26.211744,60.149232 C26.475696,58.698432 27.177696,57.541536 28.297152,56.951856 C30.865536,55.604016 34.646976,57.754944 36.749232,61.755408 C38.845872,65.754 38.4696,70.08768 35.901216,71.433648 C35.133696,71.836128 34.259472,71.92224 33.34968,71.742528 C37.202256,73.417968 39.502944,76.680864 38.540736,79.254864 C37.529856,81.973008 33.276672,82.894032 29.042208,81.317808 C24.811488,79.73784 22.203792,76.257792 23.216544,73.539648 C24.152544,71.025552 27.86472,70.055856 31.76784,71.17344 C30.144816,70.338528 28.564848,68.747328 27.45288,66.635712 C27.202032,66.160224 26.992368,65.682864 26.812656,65.205504 C26.7228,65.864448 26.578656,66.538368 26.370864,67.216032 C25.030512,71.52912 21.702096,74.32776 18.93528,73.470384 C16.522272,72.721584 15.337296,69.447456 15.951312,65.765232 C15.7716,65.92248 15.5844,66.068496 15.372864,66.188304 C14.824368,66.497184 14.215968,66.645072 13.575744,66.645072 C11.258208,66.645072 8.519472,64.728144 6.780384,61.648704 M68.406624,71.121024 C63.913824,70.643664 60.523632,67.919904 60.828768,65.037024 C61.132032,62.154144 65.02392,60.205392 69.514848,60.682752 C74.005776,61.160112 77.39784,63.885744 77.092704,66.766752 C76.81752,69.355728 73.651968,71.194032 69.754464,71.194032 C69.312672,71.194032 68.863392,71.169696 68.406624,71.121024 M51.886224,27.97704 C51.740208,27.909648 51.59232,27.846 51.444432,27.787968 C51.59232,27.853488 51.740208,27.917136 51.886224,27.97704 M78.30576,47.224944 C78.378768,47.204352 78.451776,47.18376 78.524784,47.163168 C78.451776,47.181888 78.378768,47.20248 78.30576,47.224944" id="Fill-27" fill="url(#radialGradient-12)" mask="url(#mask-11)"></path>
                </g>
                <g id="Group-32" transform="translate(411.840000, 67.803840)">
                    <mask id="mask-14" fill="white">
                        <use xlink:href="#path-13"></use>
                    </mask>
                    <g id="Clip-31"></g>
                    <path d="M6.79536,1.037088 C3.174912,1.037088 0.239616,3.972384 0.239616,7.592832 L0.239616,35.030736 C0.239616,38.651184 3.174912,41.584608 6.79536,41.584608 L34.233264,41.584608 C37.85184,41.584608 40.787136,38.651184 40.787136,35.030736 L40.787136,7.592832 C40.787136,3.972384 37.85184,1.037088 34.233264,1.037088 L6.79536,1.037088 Z" id="Fill-30" fill="url(#linearGradient-15)" mask="url(#mask-14)"></path>
                </g>
                <g id="Group-35" transform="translate(411.840000, 67.803840)">
                    <mask id="mask-17" fill="white">
                        <use xlink:href="#path-16"></use>
                    </mask>
                    <g id="Clip-34"></g>
                    <path d="M7.351344,1.860768 C3.876912,1.860768 1.063296,4.676256 1.063296,8.148816 L1.063296,34.474752 C1.063296,37.947312 3.876912,40.7628 7.351344,40.7628 L33.675408,40.7628 C37.14984,40.7628 39.963456,37.947312 39.963456,34.474752 L39.963456,8.148816 C39.963456,4.676256 37.14984,1.860768 33.675408,1.860768 L7.351344,1.860768 Z" id="Fill-33" fill="url(#linearGradient-18)" mask="url(#mask-17)"></path>
                </g>
                <g id="Group-38" transform="translate(411.840000, 67.803840)">
                    <mask id="mask-20" fill="white">
                        <use xlink:href="#path-19"></use>
                    </mask>
                    <g id="Clip-37"></g>
                    <path d="M14.3208,1.860768 C7.78752,6.911424 3.648528,12.950496 1.063296,18.17712 L1.063296,25.837344 C3.090672,19.661616 8.038368,9.06048 19.307808,1.860768 L14.3208,1.860768 Z M1.808352,37.445616 C2.272608,38.308608 2.931552,39.046176 3.72528,39.607776 C6.347952,33.778368 15.00408,18.955872 39.304512,5.357664 C38.705472,4.157712 37.73952,3.17304 36.547056,2.559024 C13.875264,16.406208 5.018832,30.506112 1.808352,37.445616 Z M8.6112,40.7628 L12.328992,40.7628 C16.050528,35.266608 24.882624,24.770304 39.963456,20.75112 L39.963456,17.525664 C21.4812,22.074624 11.77488,35.524944 8.6112,40.7628 Z M16.834896,40.7628 L22.30488,40.7628 C26.997984,37.705824 32.883552,35.012016 39.963456,33.79896 L39.963456,30.642768 C30.077424,32.200272 22.394736,36.421632 16.834896,40.7628 Z" id="Fill-36" fill="url(#linearGradient-21)" mask="url(#mask-20)"></path>
                </g>
                <g id="Group-50" transform="translate(0.000000, 0.411840)">
                    <path d="M289.747786,232.069406 C292.88713,234.00131 297.475402,235.61123 302.305162,235.61123 C309.467434,235.61123 313.655098,231.827918 313.655098,226.35419 C313.655098,221.282942 310.757242,218.385086 303.432106,215.569598 C294.577546,212.428382 289.101946,207.841982 289.101946,200.194862 C289.101946,191.742782 296.105098,185.464094 306.650074,185.464094 C312.204298,185.464094 316.229098,186.75203 318.64585,188.11859 L316.712074,193.835678 C314.943034,192.869726 311.318842,191.259806 306.408586,191.259806 C299.002954,191.259806 296.185594,195.685214 296.185594,199.38803 C296.185594,204.459278 299.487802,206.954654 306.972058,209.85251 C316.150474,213.394334 320.819242,217.821614 320.819242,225.790718 C320.819242,234.162302 314.619178,241.406942 301.820314,241.406942 C296.588074,241.406942 290.87473,239.877518 287.976874,237.945614 L289.747786,232.069406 Z" id="Fill-39" fill="#DB291A"></path>
                    <g id="Group-43" transform="translate(325.728000, 185.328000)">
                        <mask id="mask-23" fill="white">
                            <use xlink:href="#path-22"></use>
                        </mask>
                        <g id="Clip-42"></g>
                        <path d="M8.8472592,1.0209888 L8.8472592,33.1388928 C8.8472592,45.2919168 14.2404912,50.4436608 21.4851312,50.4436608 C29.5347312,50.4436608 34.6864752,45.1309248 34.6864752,33.1388928 L34.6864752,1.0209888 L41.7701232,1.0209888 L41.7701232,32.6540448 C41.7701232,49.3167168 32.9941872,56.1607488 21.2436432,56.1607488 C10.1333232,56.1607488 1.7636112,49.8015648 1.7636112,32.9779008 L1.7636112,1.0209888 L8.8472592,1.0209888 Z" id="Fill-41" fill="#DB291A" mask="url(#mask-23)"></path>
                    </g>
                    <path d="M376.335086,232.069406 C379.47443,234.00131 384.062702,235.61123 388.892462,235.61123 C396.056606,235.61123 400.242398,231.827918 400.242398,226.35419 C400.242398,221.282942 397.344542,218.385086 390.021278,215.569598 C381.164846,212.428382 375.691118,207.841982 375.691118,200.194862 C375.691118,191.742782 382.69427,185.464094 393.239246,185.464094 C398.79347,185.464094 402.81827,186.75203 405.23315,188.11859 L403.301246,193.835678 C401.530334,192.869726 397.908014,191.259806 392.997758,191.259806 C385.592126,191.259806 382.774766,195.685214 382.774766,199.38803 C382.774766,204.459278 386.075102,206.954654 393.56123,209.85251 C402.737774,213.394334 407.406542,217.821614 407.406542,225.790718 C407.406542,234.162302 401.20835,241.406942 388.409486,241.406942 C383.177246,241.406942 377.463902,239.877518 374.566046,237.945614 L376.335086,232.069406 Z" id="Fill-44" fill="#DB291A"></path>
                    <polygon id="Fill-46" fill="#DB291A" points="421.912109 186.348989 421.912109 209.048861 448.153805 209.048861 448.153805 186.348989 455.237453 186.348989 455.237453 240.601421 448.153805 240.601421 448.153805 215.166557 421.912109 215.166557 421.912109 240.601421 414.908957 240.601421 414.908957 186.348989"></polygon>
                    <mask id="mask-25" fill="white">
                        <use xlink:href="#path-24"></use>
                    </mask>
                    <g id="Clip-49"></g>
                    <polygon id="Fill-48" fill="#DB291A" mask="url(#mask-25)" points="466.24032 240.602544 473.243472 240.602544 473.243472 186.350112 466.24032 186.350112"></polygon>
                </g>
            </g>
        </g>
    </g>
</svg>