<?xml version="1.0" encoding="UTF-8"?>
<svg width="500px" height="275px" viewBox="0 0 500 275" version="1.1" xmlns="http://www.w3.org/2000/svg" xmlns:xlink="http://www.w3.org/1999/xlink">
    <!-- Generator: Sketch 52.5 (67469) - http://www.bohemiancoding.com/sketch -->
    <title>logo-negro</title>
    <desc>Created with Sketch.</desc>
    <defs>
        <polygon id="path-1" points="0 1.45834672 437.288419 1.45834672 437.288419 40.2274882 0 40.2274882"></polygon>
        <polygon id="path-3" points="0 0.98073381 437.288419 0.98073381 437.288419 39.7498095 0 39.7498095"></polygon>
        <polygon id="path-5" points="0 241.157195 479.664858 241.157195 479.664858 1.45815978 0 1.45815978"></polygon>
        <path d="M0.0749274388,44.8571076 C0.0749274388,69.1205125 19.782717,88.7888446 44.0947977,88.7888446 C68.4050053,88.7888446 88.1127949,69.1205125 88.1127949,44.8571076 C88.1127949,20.5955722 68.4050053,0.927240066 44.0947977,0.927240066 C19.782717,0.927240066 0.0749274388,20.5955722 0.0749274388,44.8571076" id="path-7"></path>
        <radialGradient cx="50.0001081%" cy="50.0002081%" fx="50.0001081%" fy="50.0002081%" r="55.9261568%" gradientTransform="translate(0.500001,0.500002),scale(0.997998,1.000000),translate(-0.500001,-0.500002)" id="radialGradient-9">
            <stop stop-color="#F3E9DA" offset="0%"></stop>
            <stop stop-color="#FFFFFF" offset="100%"></stop>
        </radialGradient>
        <path d="M1.8563273,42.987672 C1.8563273,66.2696232 20.7661397,85.1415757 44.0947977,85.1415757 C67.4234558,85.1415757 86.331395,66.2696232 86.331395,42.987672 C86.331395,19.7057208 67.4234558,0.835637721 44.0947977,0.835637721 C20.7661397,0.835637721 1.8563273,19.7057208 1.8563273,42.987672 M39.6928107,9.86314231 C39.6928107,5.35219417 42.0417859,1.69744754 44.943351,1.69744754 C47.4684057,1.69744754 49.5757399,4.46795112 50.0777537,8.1619559 C50.1751594,6.98421146 50.6153581,5.97471623 51.4320672,5.29424167 C53.6611585,3.44163097 57.8140118,4.74836647 60.7024646,8.21616953 C63.5965369,11.6821032 64.1341413,15.9948911 61.9031768,17.8456324 C59.6740855,19.7001125 55.5231054,18.3915076 52.6309062,14.9237045 C51.3159297,13.3459009 50.4917278,11.5942397 50.1901449,9.97717788 C50.1526812,14.4339124 47.8205646,18.0307065 44.943351,18.0307065 C42.0417859,18.0307065 39.6928107,14.3740905 39.6928107,9.86314231 M26.9551461,14.9180962 C24.9414712,12.8318061 25.9529916,8.60501214 29.210462,5.47744636 C32.4679324,2.34988057 36.7387964,1.50489567 38.748725,3.59305525 C40.7605267,5.67747597 39.7490063,9.9042699 36.4915359,13.0318357 C34.4441436,14.998482 31.9958896,16.0621908 29.9616096,16.0621908 C28.7590242,16.0621908 27.7025473,15.6920426 26.9551461,14.9180962 M12.5447264,23.2034349 C10.5310515,21.1190142 11.542572,16.8940897 14.796296,13.7665239 C18.0556396,10.6370887 22.3283768,9.79584263 24.3364321,11.8802633 C26.147803,13.7590461 25.5015538,17.3726652 22.9783723,20.3581539 C25.8649519,18.4775016 29.0381289,18.2120418 30.6884058,19.9244448 C30.7652064,20.0067 30.8307679,20.0945634 30.8982026,20.1805575 C30.6378297,19.0458101 30.7483477,17.9615374 31.3121767,17.0735555 C32.8613015,14.6264643 37.2164589,14.6021616 41.0377582,17.0118641 C44.8534381,19.4271749 46.6910335,23.3642063 45.1400355,25.8112976 C43.5890375,28.2565193 39.2357533,28.2845609 35.414454,25.8711195 C33.7566844,24.8204967 32.4716788,23.4838502 31.6737016,22.1079456 C31.9528063,24.289577 30.7801919,27.1105553 28.4330898,29.3650947 C25.1756194,32.490791 20.9085018,33.3376453 18.8929537,31.2513552 C17.0834561,29.370703 17.727832,25.7589534 20.2547599,22.7715952 C18.6719178,23.8016543 17.0029091,24.3493989 15.5455704,24.3493989 C14.3448582,24.3493989 13.2902545,23.9792507 12.5447264,23.2034349 M64.7579122,27.5816531 C62.0136947,26.6431964 60.9815693,22.4220108 62.4464007,18.1559587 C63.9168517,13.8917761 67.3279233,11.1941805 70.0721408,12.1345066 C72.8182314,13.0748327 73.8503569,17.2960183 72.3817791,21.5620704 C72.3799059,21.5695481 72.3761595,21.573287 72.3742863,21.5807648 C72.6946011,21.2293109 73.0636188,20.9395483 73.4944516,20.7413882 C76.1244047,19.5187773 79.8014687,21.848094 81.7046257,25.9402886 C83.6077826,30.0306137 83.0196022,34.335924 80.3896491,35.5529266 C77.7578228,36.773668 74.082632,34.4462207 72.179475,30.3558955 C71.14173,28.1275283 70.8476398,25.8412085 71.2185306,24.0203782 C69.7967825,26.3235229 67.7737416,27.7685966 65.8911897,27.7685966 C65.5053134,27.7685966 65.1250566,27.7087747 64.7579122,27.5816531 M50.8270281,27.4339677 C46.8146638,25.3551553 44.651134,21.5882425 45.9867156,19.0158991 C47.3241704,16.449164 51.6605959,16.0528436 55.671087,18.1335255 C59.6815782,20.2142073 61.845108,23.9811201 60.5076532,26.5515941 C59.2900823,28.8883886 55.5867937,29.426786 51.9097296,27.9349764 C52.5990621,28.2453027 53.2865213,28.6341453 53.9533755,29.1033737 C57.6472982,31.7018892 59.286336,35.7230452 57.6192005,38.0934896 C57.3607008,38.4598989 57.0272737,38.7571392 56.6526365,39.0020353 C57.755943,38.5870206 59.014724,38.3234301 60.3577983,38.2673471 C64.8721765,38.0804035 68.6297876,40.2732515 68.7496715,43.1652684 C68.7983743,44.3355351 68.2401649,45.4347632 67.264235,46.3489172 C68.150252,46.2778787 68.9782002,46.4442585 69.6825181,46.9004007 C72.1139135,48.4800738 72.0801962,52.8246422 69.6169566,56.604641 C67.1499707,60.3827704 63.1788164,62.1680814 60.7511674,60.5884083 C58.319772,59.0087352 58.349743,54.6641669 60.8148557,50.8822986 C61.4236412,49.9550585 62.1204663,49.1474624 62.8659944,48.4782044 C62.2047597,48.6184121 61.5116809,48.7118839 60.7923775,48.7417948 C56.2779993,48.9287384 52.5203882,46.7358904 52.4005043,43.8438735 C52.3293233,42.1314705 53.5525137,40.5648834 55.4931344,39.5254772 C53.4082784,40.1274355 50.4992206,39.4955663 47.9029848,37.6728665 C44.2071889,35.0762205 42.566278,31.0513256 44.2390331,28.6846201 C45.5446437,26.8320094 48.4930384,26.5441163 51.4845164,27.7517717 C51.2653536,27.6526916 51.0461909,27.5480032 50.8270281,27.4339677 M7.28669343,33.0647077 C5.04448982,29.1501096 5.26365258,24.8148884 7.78121452,23.3735535 C10.2987765,21.9359575 14.1594128,23.9456008 16.4034895,27.8620684 C18.6513127,31.7766666 18.4265304,36.1137572 15.9070953,37.5550921 C14.7419736,38.2206112 13.2846349,38.138356 11.834789,37.4747064 C12.6683567,38.8057445 13.2490444,40.5312336 13.4138847,42.451144 C13.4775731,43.2026571 13.4719535,43.9336064 13.4082652,44.6383836 C13.7210872,43.2979983 14.4216588,42.2342894 15.4949943,41.6940226 C16.7425362,41.0677616 18.2598168,41.2621829 19.7246483,42.0772569 C17.6922415,39.8526285 16.9579526,37.2055076 18.1080888,35.379069 C19.5223442,33.1357463 23.287448,32.9207612 26.8483745,34.7397221 C26.6029872,34.2929269 26.4456395,33.8143514 26.4044294,33.3096038 C26.1740276,30.4213258 29.6394216,27.7928993 34.1444339,27.4320982 C38.6494461,27.0731666 42.4894774,29.1201986 42.7198792,32.0066072 C42.8753537,33.9265176 41.388044,35.7286535 39.0503079,36.8297511 C39.5579413,36.6858045 40.0824334,36.571769 40.6312769,36.4913832 C45.1025718,35.8314725 49.0681065,37.6130446 49.4951929,40.4788894 C49.9222793,43.3447342 46.6404575,46.1993624 42.1729089,46.8611426 C37.6997408,47.5229228 33.7304598,45.7376118 33.3052466,42.8736364 C32.9961709,40.7873463 34.6614332,38.7029256 37.3194841,37.4709675 C36.5851952,37.674736 35.7984571,37.8168131 34.9798748,37.8841128 C33.279022,38.0187121 31.6718284,37.8093353 30.3193881,37.3419764 C32.3742731,39.5740826 33.117928,42.2380283 31.9640454,44.0738141 C30.4205402,46.5246442 26.0653828,46.5639023 22.2384638,44.1654164 C22.2234784,44.1541998 22.2103661,44.1448526 22.1935074,44.1355055 C22.8191515,44.8552382 23.3904732,45.6927453 23.8643893,46.6349409 C25.8986692,50.6635746 25.4453582,54.9857098 22.8528688,56.2849675 C20.2622526,57.5898336 16.5140075,55.3745524 14.4816007,51.3477881 C13.5318955,49.4596581 13.1310337,47.5135756 13.2340589,45.8366919 C12.6552444,48.7287088 10.999348,50.8523876 8.87702831,51.0337229 C5.98857555,51.2804884 3.33239784,47.836988 2.94652153,43.3428648 C2.56626478,38.8487415 4.593052,35.0070514 7.48525114,34.7602859 C7.83366373,34.7285054 8.17458358,34.756547 8.51363024,34.829455 C8.06968516,34.2947964 7.65383788,33.709663 7.28669343,33.0647077 M63.235012,38.2579999 C59.1421007,36.3455673 56.81935,32.6739957 58.0500332,30.0493081 C59.2788432,27.4264899 63.5927905,26.8525732 67.687575,28.7631364 C71.7804864,30.675569 74.1013638,34.34901 72.8706806,36.9699588 C72.1326454,38.5496318 70.2763181,39.3852696 68.0247485,39.3852696 C66.5318193,39.3852696 64.866557,39.0188602 63.235012,38.2579999 M69.3603301,44.425268 C68.5099037,41.6585033 71.3290486,38.3458634 75.654235,37.0297807 C79.9738018,35.713698 84.165992,36.889573 85.0126721,39.6582072 C85.8593522,42.4287108 83.0402073,45.7376118 78.7187672,47.0555639 C78.6738108,47.06865 78.6307275,47.081736 78.5876442,47.094822 C79.9157331,46.747107 81.1782604,46.8742286 82.1560635,47.5640504 C84.5237706,49.2353258 84.327086,53.5761553 81.7196112,57.2589435 C79.1083899,60.9417317 75.0716741,62.5718795 72.7020939,60.8987346 C70.33626,59.2274592 70.5310714,54.8866297 73.1422926,51.2038415 C74.6108704,49.1343763 76.5271396,47.7136052 78.3460032,47.1621217 C77.2707945,47.4556231 76.2105712,47.5939614 75.2140363,47.5939614 C72.3255835,47.5939614 69.9709887,46.4255641 69.3603301,44.425268 M49.0681065,56.6588547 C44.7691447,55.2736029 42.0043222,51.9179659 42.8940855,49.1642873 C43.7838489,46.4087392 47.9928978,45.296425 52.2956059,46.6835462 C56.5964409,48.0706674 59.3612634,51.4225655 58.4715001,54.1781136 C58.0893701,55.3614663 57.0928352,56.2382316 55.7422681,56.7485876 C56.446586,56.7037211 57.1190598,56.8271039 57.7222257,57.1486468 C60.2791245,58.5152042 60.6200444,62.8448171 58.4883587,66.8211067 C57.7990263,68.1091478 56.9336144,69.1952899 55.993275,70.0365359 C56.899897,69.7075153 57.9001784,69.4757052 58.9622748,69.3710169 C63.4635407,68.9316995 67.3391625,70.9076929 67.6220135,73.7903627 C67.9048646,76.6711629 64.4881734,79.3631502 59.9906539,79.804337 C55.4912612,80.2436544 51.6175126,78.267661 51.3309152,75.3849912 C51.2035385,74.0745169 51.8460413,72.8051701 52.9999239,71.7676333 C51.9303347,72.0686124 50.8869701,72.0256154 49.9953336,71.5489093 C48.4724334,70.7357049 47.743764,68.8700081 47.8430429,66.6565963 C47.0750366,68.569029 45.7862847,69.9243698 44.2502722,70.2440433 C45.8218752,70.6684052 47.481518,71.6012535 48.9407299,72.9939831 C52.205693,76.1122017 53.2303257,80.3333873 51.2241436,82.4252858 C49.2179614,84.5171842 44.9452242,83.6871548 41.6821342,80.5708056 C38.4152979,77.4507176 37.3906652,73.229532 39.3949741,71.1357641 C40.0768138,70.427248 41.0190264,70.0608386 42.0904888,69.9991472 C39.9232126,69.0401268 38.2579503,66.0172494 38.1080954,62.3699805 C37.9245232,57.8627712 40.1217703,54.1126834 43.0214622,53.9930395 C45.9211541,53.8771345 48.418111,57.4346704 48.6054296,61.9400103 C48.6222882,62.3998914 48.6110491,62.8448171 48.579205,63.2822651 C48.7646504,62.8130367 48.9781936,62.3400695 49.2292005,61.8727106 C50.4617569,59.5789131 52.2506495,57.9076377 54.0339225,57.1636023 C53.6087093,57.2215548 53.1647642,57.2514658 52.70958,57.2514658 C51.5556975,57.2514658 50.3175215,57.0626528 49.0681065,56.6588547 M32.7339248,56.8439288 C28.273869,56.1129795 25.0426232,53.2060071 25.5109197,50.34764 C25.9792162,47.4911424 29.9765951,45.7693922 34.4366509,46.4984721 C38.8967067,47.2294214 42.1316989,50.1382632 41.6634024,52.9947609 C41.2662869,55.4082022 38.3516096,57.012178 34.7682048,57.012178 C34.1088433,57.012178 33.4270036,56.9579644 32.7339248,56.8439288 M6.78467959,61.5642537 C4.56120784,57.6365695 4.8065952,53.3013483 7.33164989,51.8749689 C9.85857776,50.4485895 13.7079749,52.4806661 15.9295735,56.4083503 C16.901757,58.1282311 17.4037709,59.9247587 17.4449809,61.5212567 C19.0765259,58.6984089 21.6072002,57.0906943 23.7969546,57.76743 C24.8665438,58.0983201 25.6907456,58.9283495 26.22835,60.0668358 C26.4924692,58.6180232 27.1949139,57.462712 28.3150791,56.8738398 C30.8850903,55.5278461 34.6689259,57.6758276 36.7706406,61.6708116 C38.8704821,65.6620566 38.4920985,69.9898 35.9239605,71.3357937 C35.1559543,71.7377223 34.2793033,71.8218469 33.3708081,71.6442506 C37.2239516,73.3173954 39.5260972,76.5739523 38.5651528,79.1462957 C37.5536323,81.8607162 33.2977538,82.7804785 29.0606071,81.2064137 C24.8272069,79.6286101 22.2159856,76.1533293 23.2312524,73.4389088 C24.1678454,70.9282567 27.8823732,69.9598891 31.7879659,71.0759421 C30.1639137,70.2421739 28.5810715,68.6531536 27.4702723,66.5425608 C27.2192653,66.0695936 27.0075953,65.5928875 26.8296427,65.114312 C26.7397297,65.7742227 26.5954944,66.4453501 26.3856976,67.1239552 C25.0463696,71.4311349 21.715845,74.2259412 18.9454029,73.3678702 C16.5327394,72.6219654 15.3470127,69.3523225 15.9614177,65.6751426 C15.7815918,65.8321752 15.5924,65.9779912 15.3826032,66.0976351 C14.8356329,66.406092 14.2249743,66.5519079 13.5843447,66.5519079 C11.2653404,66.5519079 8.52674254,64.6394753 6.78467959,61.5642537 M68.4480886,71.0235979 C63.9524422,70.5468919 60.5619756,67.826863 60.8673049,64.9479322 C61.1707611,62.0690013 65.0651147,60.1229189 69.5588878,60.5996249 C74.052661,61.076331 77.446874,63.7963598 77.1415446,66.6752907 C76.8643131,69.2607202 73.6948825,71.0965059 69.7930361,71.0965059 C69.3528374,71.0965059 68.9032727,71.0722033 68.4480886,71.0235979 M51.9097296,27.9349764 C51.7673675,27.8695462 51.6268785,27.8097242 51.4845164,27.7517717 C51.6268785,27.8153325 51.7673675,27.8770239 51.9097296,27.9349764 M78.3460032,47.1621217 C78.4265502,47.1415579 78.5070972,47.1172553 78.5876442,47.094822 C78.5070972,47.1153858 78.4265502,47.1378191 78.3460032,47.1621217" id="path-10"></path>
        <radialGradient cx="50.0001126%" cy="50.0001155%" fx="50.0001126%" fy="50.0001155%" r="52.5965611%" gradientTransform="translate(0.500001,0.500001),scale(0.997998,1.000000),translate(-0.500001,-0.500001)" id="radialGradient-12">
            <stop stop-color="#D9B79A" offset="0%"></stop>
            <stop stop-color="#F7EEDD" offset="100%"></stop>
        </radialGradient>
        <path d="M6.79966507,1.03566733 C3.17505022,1.03566733 0.239767804,3.96694238 0.239767804,7.58243086 L0.239767804,34.9827487 C0.239767804,38.5982372 3.17505022,41.5276428 6.79966507,41.5276428 L34.2549518,41.5276428 C37.8758203,41.5276428 40.8129759,38.5982372 40.8129759,34.9827487 L40.8129759,7.58243086 C40.8129759,3.96694238 37.8758203,1.03566733 34.2549518,1.03566733 L6.79966507,1.03566733 Z" id="path-13"></path>
        <linearGradient x1="31.5517655%" y1="-33.5597512%" x2="55.8369631%" y2="76.4415268%" id="linearGradient-15">
            <stop stop-color="#F27D1D" offset="0%"></stop>
            <stop stop-color="#E2380D" offset="100%"></stop>
        </linearGradient>
        <path d="M7.35600131,1.858219 C3.87936815,1.858219 1.06396963,4.66798073 1.06396963,8.13765324 L1.06396963,34.4275263 C1.06396963,37.8953294 3.87936815,40.7069605 7.35600131,40.7069605 L33.6967424,40.7069605 C37.1715024,40.7069605 39.9887741,37.8953294 39.9887741,34.4275263 L39.9887741,8.13765324 C39.9887741,4.66798073 37.1715024,1.858219 33.6967424,1.858219 L7.35600131,1.858219 Z" id="path-16"></path>
        <linearGradient x1="31.5513686%" y1="-33.5603253%" x2="55.8374678%" y2="76.4397406%" id="linearGradient-18">
            <stop stop-color="#FFBE6B" offset="0%"></stop>
            <stop stop-color="#EC6202" offset="100%"></stop>
        </linearGradient>
        <path d="M14.3298727,1.858219 C7.79245364,6.9019563 3.64896627,12.9327556 1.06396963,18.1522198 L1.06396963,25.8019504 C3.09263004,19.6328128 8.04346056,9.04619895 19.3200401,1.858219 L14.3298727,1.858219 Z M1.80949765,37.3924512 C2.27217458,38.2561305 2.93340923,38.9926881 3.72764008,39.5535188 C6.35197363,33.7320963 15.0135856,18.9299051 39.3294126,5.35032473 C38.7299931,4.1520165 37.7634292,3.16869337 36.5683365,2.55551849 C13.8821812,16.3837337 5.02201159,30.4624534 1.80949765,37.3924512 Z M8.61665546,40.7069605 L12.3349296,40.7069605 C16.0606965,35.2182976 24.8983879,24.7363721 39.9887741,20.7226938 L39.9887741,17.5016562 C21.494809,22.0443848 11.7823398,35.4762797 8.61665546,40.7069605 Z M16.8455614,40.7069605 L22.3190108,40.7069605 C27.0150881,37.6541722 32.9043848,34.9640543 39.9887741,33.7526601 L39.9887741,30.6007916 C30.0946058,32.156162 22.4089238,36.3717394 16.8455614,40.7069605 Z" id="path-19"></path>
        <linearGradient x1="50.0000375%" y1="-6.4276416%" x2="50.0000375%" y2="77.1428555%" id="linearGradient-21">
            <stop stop-color="#FFD095" offset="0%"></stop>
            <stop stop-color="#FA9446" offset="100%"></stop>
        </linearGradient>
        <polygon id="path-22" points="1.76435387 1.0192163 41.7962112 1.0192163 41.7962112 56.0830685 1.76435387 56.0830685"></polygon>
        <polygon id="path-24" points="0 241.157195 479.664858 241.157195 479.664858 1.45815978 0 1.45815978"></polygon>
    </defs>
    <g id="logo-negro" stroke="none" stroke-width="1" fill="none" fill-rule="evenodd">
        <g id="logo2" transform="translate(10.000000, 16.000000)">
            <g id="Group-51">
                <g id="Group-23" transform="translate(0.000000, 0.411276)">
                    <g id="Group-3">
                        <mask id="mask-2" fill="white">
                            <use xlink:href="#path-1"></use>
                        </mask>
                        <g id="Clip-2"></g>
                        <path d="M1.69991627,1.45834672 C1.69991627,1.45834672 435.355581,34.6015708 436.400819,35.3773865 C437.69519,36.3345376 437.539716,39.3929343 436.157304,40.2154859 C435.037139,40.8828744 1.08925764,13.4956427 1.08925764,13.4956427 C-0.446754854,7.24798883 -0.459867156,7.51905699 1.69991627,1.45834672" id="Fill-1" fill="#5E6D77" mask="url(#mask-2)"></path>
                    </g>
                    <g id="Group-6" transform="translate(0.000000, 134.599364)">
                        <mask id="mask-4" fill="white">
                            <use xlink:href="#path-3"></use>
                        </mask>
                        <g id="Clip-5"></g>
                        <path d="M1.69991627,39.7498095 C1.69991627,39.7498095 435.355581,6.60658547 436.400819,5.83076969 C437.69519,4.87361865 437.539716,1.81522198 436.157304,0.992670312 C435.037139,0.327151233 1.08925764,27.7125136 1.08925764,27.7125136 C-0.446754854,33.9601674 -0.459867156,33.6890992 1.69991627,39.7498095" id="Fill-4" fill="#5E6D77" mask="url(#mask-4)"></path>
                    </g>
                    <polygon id="Fill-7" fill="#000000" points="0.229090644 97.4065689 9.21289056 97.4065689 9.21289056 52.5793723 18.1966905 52.5793723 18.1966905 97.4065689 45.146217 97.4065689 45.146217 52.5793723 54.1300169 52.5793723 54.1300169 97.4065689 63.1138169 97.4065689 63.1138169 106.372382 54.1300169 106.372382 54.1300169 124.304009 45.146217 124.304009 45.146217 106.372382 18.1966905 106.372382 18.1966905 124.304009 9.21289056 124.304009 9.21289056 106.372382 0.229090644 106.372382"></polygon>
                    <polygon id="Fill-9" fill="#000000" points="146.562753 124.303448 132.369623 81.2690398 118.17462 124.303448 94.5481253 52.5788114 103.98149 52.5788114 118.17462 95.7029522 132.27971 52.5788114 146.562753 95.7029522 160.755883 52.5788114 170.189248 52.5788114"></polygon>
                    <path d="M204.680783,115.517661 C219.68313,115.517661 231.722096,103.502798 231.722096,88.5304886 C231.722096,73.5581787 219.68313,61.5451855 204.680783,61.5451855 C189.678437,61.5451855 177.639471,73.5581787 177.639471,88.5304886 C177.639471,103.502798 189.678437,115.517661 204.680783,115.517661 M204.59087,52.5793723 C224.444768,52.5793723 240.52607,68.6266076 240.52607,88.4407557 C240.52607,108.254904 224.444768,124.304009 204.59087,124.304009 C184.738845,124.304009 168.657544,108.254904 168.657544,88.4407557 C168.657544,68.6266076 184.738845,52.5793723 204.59087,52.5793723" id="Fill-11" fill="#000000"></path>
                    <path d="M279.96675,115.517661 C294.969096,115.517661 307.008062,103.502798 307.008062,88.5304886 C307.008062,73.5581787 294.969096,61.5451855 279.96675,61.5451855 C264.96253,61.5451855 252.925437,73.5581787 252.925437,88.5304886 C252.925437,103.502798 264.96253,115.517661 279.96675,115.517661 M279.874964,52.5793723 C299.730735,52.5793723 315.810163,68.6266076 315.810163,88.4407557 C315.810163,108.254904 299.730735,124.304009 279.874964,124.304009 C260.022939,124.304009 243.94351,108.254904 243.94351,88.4407557 C243.94351,68.6266076 260.022939,52.5793723 279.874964,52.5793723" id="Fill-13" fill="#000000"></path>
                    <path d="M330.403781,115.517661 C345.406127,115.517661 357.445093,103.502798 357.445093,88.5304886 C357.445093,73.5581787 345.406127,61.5451855 330.403781,61.5451855 L330.403781,115.517661 Z M321.330068,52.5793723 L330.313868,52.5793723 C350.167766,52.5793723 366.247194,68.6266076 366.247194,88.4407557 C366.247194,108.254904 350.167766,124.304009 330.313868,124.304009 L321.330068,124.304009 L321.330068,52.5793723 Z" id="Fill-15" fill="#000000"></path>
                    <mask id="mask-6" fill="white">
                        <use xlink:href="#path-5"></use>
                    </mask>
                    <g id="Clip-18"></g>
                    <polygon id="Fill-17" fill="#000000" mask="url(#mask-6)" points="71.9790441 106.39332 99.7508993 106.39332 99.7508993 97.4275066 71.9790441 97.4275066"></polygon>
                    <path d="M101.756145,9.1232197 C42.0333566,4.54497187 1.69991627,1.45853367 1.69991627,1.45853367 C-0.459867156,7.51924394 -0.446754854,7.24817577 1.08925764,13.4958296 C1.08925764,13.4958296 41.8703894,16.2308139 101.756145,19.8294775 L101.756145,9.1232197 Z" id="Fill-19" fill="#DB291A" mask="url(#mask-6)"></path>
                    <path d="M101.756145,155.981595 C43.820376,159.621386 1.08925764,162.311504 1.08925764,162.311504 C-0.446754854,168.561027 -0.459867156,168.28809 1.69991627,174.3488 C1.69991627,174.3488 42.2019433,171.249276 101.756145,166.682245 L101.756145,155.981595 Z" id="Fill-20" fill="#DB291A" mask="url(#mask-6)"></path>
                    <path d="M479.664109,87.8539399 C479.664109,114.212982 458.253593,135.580631 431.843544,135.580631 C405.433495,135.580631 384.02298,114.212982 384.02298,87.8539399 C384.02298,61.4967671 405.433495,40.129118 431.843544,40.129118 C458.253593,40.129118 479.664109,61.4967671 479.664109,87.8539399" id="Fill-21" fill="#597769" mask="url(#mask-6)"></path>
                    <path d="M478.632546,87.8539399 C478.632546,113.644674 457.682834,134.550572 431.842233,134.550572 C406.003506,134.550572 385.053794,113.644674 385.053794,87.8539399 C385.053794,62.0650755 406.003506,41.1573076 431.842233,41.1573076 C457.682834,41.1573076 478.632546,62.0650755 478.632546,87.8539399" id="Fill-22" fill="#2F1D10" mask="url(#mask-6)"></path>
                </g>
                <g id="Group-26" transform="translate(387.749496, 43.408295)">
                    <mask id="mask-8" fill="white">
                        <use xlink:href="#path-7"></use>
                    </mask>
                    <g id="Clip-25"></g>
                    <path d="M0.0749274388,44.8571076 C0.0749274388,69.1205125 19.782717,88.7888446 44.0947977,88.7888446 C68.4050053,88.7888446 88.1127949,69.1205125 88.1127949,44.8571076 C88.1127949,20.5955722 68.4050053,0.927240066 44.0947977,0.927240066 C19.782717,0.927240066 0.0749274388,20.5955722 0.0749274388,44.8571076" id="Fill-24" fill="url(#radialGradient-9)" mask="url(#mask-8)"></path>
                </g>
                <g id="Group-29" transform="translate(387.749496, 45.277731)">
                    <mask id="mask-11" fill="white">
                        <use xlink:href="#path-10"></use>
                    </mask>
                    <g id="Clip-28"></g>
                    <path d="M1.8563273,42.987672 C1.8563273,66.2696232 20.7661397,85.1415757 44.0947977,85.1415757 C67.4234558,85.1415757 86.331395,66.2696232 86.331395,42.987672 C86.331395,19.7057208 67.4234558,0.835637721 44.0947977,0.835637721 C20.7661397,0.835637721 1.8563273,19.7057208 1.8563273,42.987672 M39.6928107,9.86314231 C39.6928107,5.35219417 42.0417859,1.69744754 44.943351,1.69744754 C47.4684057,1.69744754 49.5757399,4.46795112 50.0777537,8.1619559 C50.1751594,6.98421146 50.6153581,5.97471623 51.4320672,5.29424167 C53.6611585,3.44163097 57.8140118,4.74836647 60.7024646,8.21616953 C63.5965369,11.6821032 64.1341413,15.9948911 61.9031768,17.8456324 C59.6740855,19.7001125 55.5231054,18.3915076 52.6309062,14.9237045 C51.3159297,13.3459009 50.4917278,11.5942397 50.1901449,9.97717788 C50.1526812,14.4339124 47.8205646,18.0307065 44.943351,18.0307065 C42.0417859,18.0307065 39.6928107,14.3740905 39.6928107,9.86314231 M26.9551461,14.9180962 C24.9414712,12.8318061 25.9529916,8.60501214 29.210462,5.47744636 C32.4679324,2.34988057 36.7387964,1.50489567 38.748725,3.59305525 C40.7605267,5.67747597 39.7490063,9.9042699 36.4915359,13.0318357 C34.4441436,14.998482 31.9958896,16.0621908 29.9616096,16.0621908 C28.7590242,16.0621908 27.7025473,15.6920426 26.9551461,14.9180962 M12.5447264,23.2034349 C10.5310515,21.1190142 11.542572,16.8940897 14.796296,13.7665239 C18.0556396,10.6370887 22.3283768,9.79584263 24.3364321,11.8802633 C26.147803,13.7590461 25.5015538,17.3726652 22.9783723,20.3581539 C25.8649519,18.4775016 29.0381289,18.2120418 30.6884058,19.9244448 C30.7652064,20.0067 30.8307679,20.0945634 30.8982026,20.1805575 C30.6378297,19.0458101 30.7483477,17.9615374 31.3121767,17.0735555 C32.8613015,14.6264643 37.2164589,14.6021616 41.0377582,17.0118641 C44.8534381,19.4271749 46.6910335,23.3642063 45.1400355,25.8112976 C43.5890375,28.2565193 39.2357533,28.2845609 35.414454,25.8711195 C33.7566844,24.8204967 32.4716788,23.4838502 31.6737016,22.1079456 C31.9528063,24.289577 30.7801919,27.1105553 28.4330898,29.3650947 C25.1756194,32.490791 20.9085018,33.3376453 18.8929537,31.2513552 C17.0834561,29.370703 17.727832,25.7589534 20.2547599,22.7715952 C18.6719178,23.8016543 17.0029091,24.3493989 15.5455704,24.3493989 C14.3448582,24.3493989 13.2902545,23.9792507 12.5447264,23.2034349 M64.7579122,27.5816531 C62.0136947,26.6431964 60.9815693,22.4220108 62.4464007,18.1559587 C63.9168517,13.8917761 67.3279233,11.1941805 70.0721408,12.1345066 C72.8182314,13.0748327 73.8503569,17.2960183 72.3817791,21.5620704 C72.3799059,21.5695481 72.3761595,21.573287 72.3742863,21.5807648 C72.6946011,21.2293109 73.0636188,20.9395483 73.4944516,20.7413882 C76.1244047,19.5187773 79.8014687,21.848094 81.7046257,25.9402886 C83.6077826,30.0306137 83.0196022,34.335924 80.3896491,35.5529266 C77.7578228,36.773668 74.082632,34.4462207 72.179475,30.3558955 C71.14173,28.1275283 70.8476398,25.8412085 71.2185306,24.0203782 C69.7967825,26.3235229 67.7737416,27.7685966 65.8911897,27.7685966 C65.5053134,27.7685966 65.1250566,27.7087747 64.7579122,27.5816531 M50.8270281,27.4339677 C46.8146638,25.3551553 44.651134,21.5882425 45.9867156,19.0158991 C47.3241704,16.449164 51.6605959,16.0528436 55.671087,18.1335255 C59.6815782,20.2142073 61.845108,23.9811201 60.5076532,26.5515941 C59.2900823,28.8883886 55.5867937,29.426786 51.9097296,27.9349764 C52.5990621,28.2453027 53.2865213,28.6341453 53.9533755,29.1033737 C57.6472982,31.7018892 59.286336,35.7230452 57.6192005,38.0934896 C57.3607008,38.4598989 57.0272737,38.7571392 56.6526365,39.0020353 C57.755943,38.5870206 59.014724,38.3234301 60.3577983,38.2673471 C64.8721765,38.0804035 68.6297876,40.2732515 68.7496715,43.1652684 C68.7983743,44.3355351 68.2401649,45.4347632 67.264235,46.3489172 C68.150252,46.2778787 68.9782002,46.4442585 69.6825181,46.9004007 C72.1139135,48.4800738 72.0801962,52.8246422 69.6169566,56.604641 C67.1499707,60.3827704 63.1788164,62.1680814 60.7511674,60.5884083 C58.319772,59.0087352 58.349743,54.6641669 60.8148557,50.8822986 C61.4236412,49.9550585 62.1204663,49.1474624 62.8659944,48.4782044 C62.2047597,48.6184121 61.5116809,48.7118839 60.7923775,48.7417948 C56.2779993,48.9287384 52.5203882,46.7358904 52.4005043,43.8438735 C52.3293233,42.1314705 53.5525137,40.5648834 55.4931344,39.5254772 C53.4082784,40.1274355 50.4992206,39.4955663 47.9029848,37.6728665 C44.2071889,35.0762205 42.566278,31.0513256 44.2390331,28.6846201 C45.5446437,26.8320094 48.4930384,26.5441163 51.4845164,27.7517717 C51.2653536,27.6526916 51.0461909,27.5480032 50.8270281,27.4339677 M7.28669343,33.0647077 C5.04448982,29.1501096 5.26365258,24.8148884 7.78121452,23.3735535 C10.2987765,21.9359575 14.1594128,23.9456008 16.4034895,27.8620684 C18.6513127,31.7766666 18.4265304,36.1137572 15.9070953,37.5550921 C14.7419736,38.2206112 13.2846349,38.138356 11.834789,37.4747064 C12.6683567,38.8057445 13.2490444,40.5312336 13.4138847,42.451144 C13.4775731,43.2026571 13.4719535,43.9336064 13.4082652,44.6383836 C13.7210872,43.2979983 14.4216588,42.2342894 15.4949943,41.6940226 C16.7425362,41.0677616 18.2598168,41.2621829 19.7246483,42.0772569 C17.6922415,39.8526285 16.9579526,37.2055076 18.1080888,35.379069 C19.5223442,33.1357463 23.287448,32.9207612 26.8483745,34.7397221 C26.6029872,34.2929269 26.4456395,33.8143514 26.4044294,33.3096038 C26.1740276,30.4213258 29.6394216,27.7928993 34.1444339,27.4320982 C38.6494461,27.0731666 42.4894774,29.1201986 42.7198792,32.0066072 C42.8753537,33.9265176 41.388044,35.7286535 39.0503079,36.8297511 C39.5579413,36.6858045 40.0824334,36.571769 40.6312769,36.4913832 C45.1025718,35.8314725 49.0681065,37.6130446 49.4951929,40.4788894 C49.9222793,43.3447342 46.6404575,46.1993624 42.1729089,46.8611426 C37.6997408,47.5229228 33.7304598,45.7376118 33.3052466,42.8736364 C32.9961709,40.7873463 34.6614332,38.7029256 37.3194841,37.4709675 C36.5851952,37.674736 35.7984571,37.8168131 34.9798748,37.8841128 C33.279022,38.0187121 31.6718284,37.8093353 30.3193881,37.3419764 C32.3742731,39.5740826 33.117928,42.2380283 31.9640454,44.0738141 C30.4205402,46.5246442 26.0653828,46.5639023 22.2384638,44.1654164 C22.2234784,44.1541998 22.2103661,44.1448526 22.1935074,44.1355055 C22.8191515,44.8552382 23.3904732,45.6927453 23.8643893,46.6349409 C25.8986692,50.6635746 25.4453582,54.9857098 22.8528688,56.2849675 C20.2622526,57.5898336 16.5140075,55.3745524 14.4816007,51.3477881 C13.5318955,49.4596581 13.1310337,47.5135756 13.2340589,45.8366919 C12.6552444,48.7287088 10.999348,50.8523876 8.87702831,51.0337229 C5.98857555,51.2804884 3.33239784,47.836988 2.94652153,43.3428648 C2.56626478,38.8487415 4.593052,35.0070514 7.48525114,34.7602859 C7.83366373,34.7285054 8.17458358,34.756547 8.51363024,34.829455 C8.06968516,34.2947964 7.65383788,33.709663 7.28669343,33.0647077 M63.235012,38.2579999 C59.1421007,36.3455673 56.81935,32.6739957 58.0500332,30.0493081 C59.2788432,27.4264899 63.5927905,26.8525732 67.687575,28.7631364 C71.7804864,30.675569 74.1013638,34.34901 72.8706806,36.9699588 C72.1326454,38.5496318 70.2763181,39.3852696 68.0247485,39.3852696 C66.5318193,39.3852696 64.866557,39.0188602 63.235012,38.2579999 M69.3603301,44.425268 C68.5099037,41.6585033 71.3290486,38.3458634 75.654235,37.0297807 C79.9738018,35.713698 84.165992,36.889573 85.0126721,39.6582072 C85.8593522,42.4287108 83.0402073,45.7376118 78.7187672,47.0555639 C78.6738108,47.06865 78.6307275,47.081736 78.5876442,47.094822 C79.9157331,46.747107 81.1782604,46.8742286 82.1560635,47.5640504 C84.5237706,49.2353258 84.327086,53.5761553 81.7196112,57.2589435 C79.1083899,60.9417317 75.0716741,62.5718795 72.7020939,60.8987346 C70.33626,59.2274592 70.5310714,54.8866297 73.1422926,51.2038415 C74.6108704,49.1343763 76.5271396,47.7136052 78.3460032,47.1621217 C77.2707945,47.4556231 76.2105712,47.5939614 75.2140363,47.5939614 C72.3255835,47.5939614 69.9709887,46.4255641 69.3603301,44.425268 M49.0681065,56.6588547 C44.7691447,55.2736029 42.0043222,51.9179659 42.8940855,49.1642873 C43.7838489,46.4087392 47.9928978,45.296425 52.2956059,46.6835462 C56.5964409,48.0706674 59.3612634,51.4225655 58.4715001,54.1781136 C58.0893701,55.3614663 57.0928352,56.2382316 55.7422681,56.7485876 C56.446586,56.7037211 57.1190598,56.8271039 57.7222257,57.1486468 C60.2791245,58.5152042 60.6200444,62.8448171 58.4883587,66.8211067 C57.7990263,68.1091478 56.9336144,69.1952899 55.993275,70.0365359 C56.899897,69.7075153 57.9001784,69.4757052 58.9622748,69.3710169 C63.4635407,68.9316995 67.3391625,70.9076929 67.6220135,73.7903627 C67.9048646,76.6711629 64.4881734,79.3631502 59.9906539,79.804337 C55.4912612,80.2436544 51.6175126,78.267661 51.3309152,75.3849912 C51.2035385,74.0745169 51.8460413,72.8051701 52.9999239,71.7676333 C51.9303347,72.0686124 50.8869701,72.0256154 49.9953336,71.5489093 C48.4724334,70.7357049 47.743764,68.8700081 47.8430429,66.6565963 C47.0750366,68.569029 45.7862847,69.9243698 44.2502722,70.2440433 C45.8218752,70.6684052 47.481518,71.6012535 48.9407299,72.9939831 C52.205693,76.1122017 53.2303257,80.3333873 51.2241436,82.4252858 C49.2179614,84.5171842 44.9452242,83.6871548 41.6821342,80.5708056 C38.4152979,77.4507176 37.3906652,73.229532 39.3949741,71.1357641 C40.0768138,70.427248 41.0190264,70.0608386 42.0904888,69.9991472 C39.9232126,69.0401268 38.2579503,66.0172494 38.1080954,62.3699805 C37.9245232,57.8627712 40.1217703,54.1126834 43.0214622,53.9930395 C45.9211541,53.8771345 48.418111,57.4346704 48.6054296,61.9400103 C48.6222882,62.3998914 48.6110491,62.8448171 48.579205,63.2822651 C48.7646504,62.8130367 48.9781936,62.3400695 49.2292005,61.8727106 C50.4617569,59.5789131 52.2506495,57.9076377 54.0339225,57.1636023 C53.6087093,57.2215548 53.1647642,57.2514658 52.70958,57.2514658 C51.5556975,57.2514658 50.3175215,57.0626528 49.0681065,56.6588547 M32.7339248,56.8439288 C28.273869,56.1129795 25.0426232,53.2060071 25.5109197,50.34764 C25.9792162,47.4911424 29.9765951,45.7693922 34.4366509,46.4984721 C38.8967067,47.2294214 42.1316989,50.1382632 41.6634024,52.9947609 C41.2662869,55.4082022 38.3516096,57.012178 34.7682048,57.012178 C34.1088433,57.012178 33.4270036,56.9579644 32.7339248,56.8439288 M6.78467959,61.5642537 C4.56120784,57.6365695 4.8065952,53.3013483 7.33164989,51.8749689 C9.85857776,50.4485895 13.7079749,52.4806661 15.9295735,56.4083503 C16.901757,58.1282311 17.4037709,59.9247587 17.4449809,61.5212567 C19.0765259,58.6984089 21.6072002,57.0906943 23.7969546,57.76743 C24.8665438,58.0983201 25.6907456,58.9283495 26.22835,60.0668358 C26.4924692,58.6180232 27.1949139,57.462712 28.3150791,56.8738398 C30.8850903,55.5278461 34.6689259,57.6758276 36.7706406,61.6708116 C38.8704821,65.6620566 38.4920985,69.9898 35.9239605,71.3357937 C35.1559543,71.7377223 34.2793033,71.8218469 33.3708081,71.6442506 C37.2239516,73.3173954 39.5260972,76.5739523 38.5651528,79.1462957 C37.5536323,81.8607162 33.2977538,82.7804785 29.0606071,81.2064137 C24.8272069,79.6286101 22.2159856,76.1533293 23.2312524,73.4389088 C24.1678454,70.9282567 27.8823732,69.9598891 31.7879659,71.0759421 C30.1639137,70.2421739 28.5810715,68.6531536 27.4702723,66.5425608 C27.2192653,66.0695936 27.0075953,65.5928875 26.8296427,65.114312 C26.7397297,65.7742227 26.5954944,66.4453501 26.3856976,67.1239552 C25.0463696,71.4311349 21.715845,74.2259412 18.9454029,73.3678702 C16.5327394,72.6219654 15.3470127,69.3523225 15.9614177,65.6751426 C15.7815918,65.8321752 15.5924,65.9779912 15.3826032,66.0976351 C14.8356329,66.406092 14.2249743,66.5519079 13.5843447,66.5519079 C11.2653404,66.5519079 8.52674254,64.6394753 6.78467959,61.5642537 M68.4480886,71.0235979 C63.9524422,70.5468919 60.5619756,67.826863 60.8673049,64.9479322 C61.1707611,62.0690013 65.0651147,60.1229189 69.5588878,60.5996249 C74.052661,61.076331 77.446874,63.7963598 77.1415446,66.6752907 C76.8643131,69.2607202 73.6948825,71.0965059 69.7930361,71.0965059 C69.3528374,71.0965059 68.9032727,71.0722033 68.4480886,71.0235979 M51.9097296,27.9349764 C51.7673675,27.8695462 51.6268785,27.8097242 51.4845164,27.7517717 C51.6268785,27.8153325 51.7673675,27.8770239 51.9097296,27.9349764 M78.3460032,47.1621217 C78.4265502,47.1415579 78.5070972,47.1172553 78.5876442,47.094822 C78.5070972,47.1153858 78.4265502,47.1378191 78.3460032,47.1621217" id="Fill-27" fill="url(#radialGradient-12)" mask="url(#mask-11)"></path>
                </g>
                <g id="Group-32" transform="translate(412.100914, 67.710958)">
                    <mask id="mask-14" fill="white">
                        <use xlink:href="#path-13"></use>
                    </mask>
                    <g id="Clip-31"></g>
                    <path d="M6.79966507,1.03566733 C3.17505022,1.03566733 0.239767804,3.96694238 0.239767804,7.58243086 L0.239767804,34.9827487 C0.239767804,38.5982372 3.17505022,41.5276428 6.79966507,41.5276428 L34.2549518,41.5276428 C37.8758203,41.5276428 40.8129759,38.5982372 40.8129759,34.9827487 L40.8129759,7.58243086 C40.8129759,3.96694238 37.8758203,1.03566733 34.2549518,1.03566733 L6.79966507,1.03566733 Z" id="Fill-30" fill="url(#linearGradient-15)" mask="url(#mask-14)"></path>
                </g>
                <g id="Group-35" transform="translate(412.100914, 67.710958)">
                    <mask id="mask-17" fill="white">
                        <use xlink:href="#path-16"></use>
                    </mask>
                    <g id="Clip-34"></g>
                    <path d="M7.35600131,1.858219 C3.87936815,1.858219 1.06396963,4.66798073 1.06396963,8.13765324 L1.06396963,34.4275263 C1.06396963,37.8953294 3.87936815,40.7069605 7.35600131,40.7069605 L33.6967424,40.7069605 C37.1715024,40.7069605 39.9887741,37.8953294 39.9887741,34.4275263 L39.9887741,8.13765324 C39.9887741,4.66798073 37.1715024,1.858219 33.6967424,1.858219 L7.35600131,1.858219 Z" id="Fill-33" fill="url(#linearGradient-18)" mask="url(#mask-17)"></path>
                </g>
                <g id="Group-38" transform="translate(412.100914, 67.710958)">
                    <mask id="mask-20" fill="white">
                        <use xlink:href="#path-19"></use>
                    </mask>
                    <g id="Clip-37"></g>
                    <path d="M14.3298727,1.858219 C7.79245364,6.9019563 3.64896627,12.9327556 1.06396963,18.1522198 L1.06396963,25.8019504 C3.09263004,19.6328128 8.04346056,9.04619895 19.3200401,1.858219 L14.3298727,1.858219 Z M1.80949765,37.3924512 C2.27217458,38.2561305 2.93340923,38.9926881 3.72764008,39.5535188 C6.35197363,33.7320963 15.0135856,18.9299051 39.3294126,5.35032473 C38.7299931,4.1520165 37.7634292,3.16869337 36.5683365,2.55551849 C13.8821812,16.3837337 5.02201159,30.4624534 1.80949765,37.3924512 Z M8.61665546,40.7069605 L12.3349296,40.7069605 C16.0606965,35.2182976 24.8983879,24.7363721 39.9887741,20.7226938 L39.9887741,17.5016562 C21.494809,22.0443848 11.7823398,35.4762797 8.61665546,40.7069605 Z M16.8455614,40.7069605 L22.3190108,40.7069605 C27.0150881,37.6541722 32.9043848,34.9640543 39.9887741,33.7526601 L39.9887741,30.6007916 C30.0946058,32.156162 22.4089238,36.3717394 16.8455614,40.7069605 Z" id="Fill-36" fill="url(#linearGradient-21)" mask="url(#mask-20)"></path>
                </g>
                <g id="Group-50" transform="translate(0.000000, 0.411276)">
                    <path d="M289.930975,231.751316 C293.072308,233.680574 297.663487,235.288288 302.496307,235.288288 C309.663116,235.288288 313.853433,231.510159 313.853433,226.043929 C313.853433,220.979628 310.953741,218.085742 303.623965,215.274111 C294.763795,212.137198 289.284726,207.55708 289.284726,199.920436 C289.284726,191.479934 296.292315,185.209847 306.843971,185.209847 C312.401714,185.209847 316.429064,186.494149 318.847347,187.860707 L316.912346,193.569963 C315.142185,192.605334 311.515697,190.99762 306.60233,190.99762 C299.192007,190.99762 296.372862,195.416966 296.372862,199.114709 C296.372862,204.17901 299.677162,206.670968 307.166159,209.564854 C316.35039,213.101826 321.022116,217.523042 321.022116,225.481229 C321.022116,233.841345 314.818124,241.076061 302.011152,241.076061 C296.775597,241.076061 291.058633,239.548732 288.158941,237.619475 L289.930975,231.751316 Z" id="Fill-39" fill="#DB291A"></path>
                    <g id="Group-43" transform="translate(325.934359, 185.074126)">
                        <mask id="mask-23" fill="white">
                            <use xlink:href="#path-22"></use>
                        </mask>
                        <g id="Clip-42"></g>
                        <path d="M8.85248958,1.0192163 L8.85248958,33.0931232 C8.85248958,45.2294992 14.2491384,50.374186 21.4983681,50.374186 C29.5530677,50.374186 34.7080755,45.0687277 34.7080755,33.0931232 L34.7080755,1.0192163 L41.7962112,1.0192163 L41.7962112,32.6089393 C41.7962112,49.2487858 33.0147154,56.0834424 21.2567271,56.0834424 C10.1393683,56.0834424 1.76435387,49.7329696 1.76435387,32.9323517 L1.76435387,1.0192163 L8.85248958,1.0192163 Z" id="Fill-41" fill="#DB291A" mask="url(#mask-23)"></path>
                    </g>
                    <path d="M376.573132,231.751316 C379.714465,233.680574 384.305644,235.288288 389.138463,235.288288 C396.307146,235.288288 400.49559,231.510159 400.49559,226.043929 C400.49559,220.979628 397.595898,218.085742 390.267994,215.274111 C381.405952,212.137198 375.928756,207.55708 375.928756,199.920436 C375.928756,191.479934 382.936345,185.209847 393.488001,185.209847 C399.045744,185.209847 403.073094,186.494149 405.489504,187.860707 L403.556376,193.569963 C401.784342,192.605334 398.159727,190.99762 393.24636,190.99762 C385.836036,190.99762 383.016892,195.416966 383.016892,199.114709 C383.016892,204.17901 386.319318,206.670968 393.810189,209.564854 C402.992547,213.101826 407.664273,217.523042 407.664273,225.481229 C407.664273,233.841345 401.462154,241.076061 388.655181,241.076061 C383.419627,241.076061 377.702663,239.548732 374.802971,237.619475 L376.573132,231.751316 Z" id="Fill-44" fill="#DB291A"></path>
                    <polygon id="Fill-46" fill="#DB291A" points="422.179029 186.093342 422.179029 208.762119 448.43735 208.762119 448.43735 186.093342 455.525485 186.093342 455.525485 240.271456 448.43735 240.271456 448.43735 214.871434 422.179029 214.871434 422.179029 240.271456 415.17144 240.271456 415.17144 186.093342"></polygon>
                    <mask id="mask-25" fill="white">
                        <use xlink:href="#path-24"></use>
                    </mask>
                    <g id="Clip-49"></g>
                    <polygon id="Fill-48" fill="#DB291A" mask="url(#mask-25)" points="466.535698 240.272951 473.543287 240.272951 473.543287 186.094838 466.535698 186.094838"></polygon>
                </g>
            </g>
        </g>
    </g>
</svg>